<?xml version="1.0" encoding="UTF-8" standalone="no"?>
<!-- Created with Friction - https://friction.graphics -->

<svg width="1000" xmlns:xlink="http://www.w3.org/1999/xlink" height="200" viewBox="0 0 1000 200" xmlns="http://www.w3.org/2000/svg">
 <g transform="translate(475 305)">
  <g transform="translate(-294.156 -205)">
   <g transform="rotate(-90)">
    <g transform="scale(1.4 1.4)">
     <g transform="skewX(0) skewY(0)">
      <g transform="translate(-475 -305)">
       <path stroke-width="7.2" id="crta2" stroke-linecap="round" fill-rule="evenodd" stroke-linejoin="round" d="M0 0" fill="rgba(0, 0, 230, 1)" stroke="rgba(255, 255, 255, 1)">
        <animate dur="8s" keyTimes="0;0.03;0.25;1" keySplines="0 0 1 1;0 0 1 1;0 0 1 1" values="M475 250C475 250 474.884 251.151 474.884 251.151;M475 250C475 250 474.884 251.151 474.884 251.151;M475 250C475 250 475 816.751 475 816.751;M475 250C475 250 475 816.751 475 816.751" repeatCount="indefinite" calcMode="spline" attributeName="d"/>
       </path>
       <animate dur="8s" keyTimes="0;0.025;0.03;0.665;0.67;1" keySplines="0 0 1 1;0 0 1 1;0 0.333333 1 0.666667;0 0 1 1;0 0 1 1" values="0;0;1;1;0;0" repeatCount="indefinite" calcMode="spline" attributeName="opacity"/>
      </g>
     </g>
    </g>
   </g>
  </g>
 </g>
 <g transform="translate(475 400)">
  <g transform="translate(422 -300)">
   <g transform="rotate(0)">
    <g>
     <animateTransform dur="8s" type="scale" keyTimes="0;0.25;0.4;0.82;0.825;1" keySplines="0 0 1 1;0 0 1 1;0 0.333333 1 0.666667;0 0 1 1;0 0 1 1" values="0 1;0 1;0.6 1;0.6 1;0 1;0 1" repeatCount="indefinite" calcMode="spline" attributeName="transform"/>
     <g>
      <animateTransform dur="8s" type="scale" keyTimes="0;0.25;0.4;0.82;0.825;1" keySplines="0 0 1 1;0 0 1 1;0 0.333333 1 0.666667;0 0 1 1;0 0 1 1" values="1 0;1 0;1 0.6;1 0.6;1 0;1 0" repeatCount="indefinite" calcMode="spline" attributeName="transform"/>
      <g transform="skewX(0) skewY(0)">
       <g opacity="1" transform="translate(-475 -400)">
        <path stroke-width="1" id="krug0" stroke-linecap="butt" fill-rule="evenodd" stroke-linejoin="miter" d="M525 400C525 427.614 502.614 450 475 450C447.386 450 425 427.614 425 400C425 372.386 447.386 350 475 350C502.614 350 525 372.386 525 400Z" fill="rgba(255, 255, 255, 1)" stroke="none"/>
       </g>
      </g>
     </g>
    </g>
   </g>
  </g>
 </g>
 <g transform="translate(299 100)">
  <g transform="translate(598 0)">
   <g transform="rotate(0)">
    <g>
     <animateTransform dur="8s" type="scale" keyTimes="0;0.3;0.4;0.82;0.825;1" keySplines="0 0 1 1;0 0 1 1;0 0.333333 1 0.666667;0 0 1 1;0 0 1 1" values="0 1;0 1;1.5 1;1.5 1;0 1;0 1" repeatCount="indefinite" calcMode="spline" attributeName="transform"/>
     <g>
      <animateTransform dur="8s" type="scale" keyTimes="0;0.3;0.4;0.82;0.825;1" keySplines="0 0 1 1;0 0 1 1;0 0.333333 1 0.666667;0 0 1 1;0 0 1 1" values="1 0;1 0;1 1.5;1 1.5;1 0;1 0" repeatCount="indefinite" calcMode="spline" attributeName="transform"/>
      <g transform="skewX(0) skewY(0)">
       <g transform="translate(-299 -100)">
        <path stroke-width="3" id="krug3b2" stroke-linecap="round" fill-rule="evenodd" stroke-linejoin="round" d="M349 100C349 127.614 326.614 150 299 150C271.386 150 249 127.614 249 100C249 72.3858 271.386 50 299 50C326.614 50 349 72.3858 349 100Z" fill="rgba(255, 255, 255, 0)" stroke="rgba(255, 255, 255, 1)"/>
        <animate dur="8s" keyTimes="0;0.35;0.4;1" keySplines="0 0 1 1;0 0 1 1;0 0 1 1" values="1;1;0;0" repeatCount="indefinite" calcMode="spline" attributeName="opacity"/>
       </g>
      </g>
     </g>
    </g>
   </g>
  </g>
 </g>
 <g transform="translate(475 200)">
  <g transform="translate(-372 -100)">
   <g transform="rotate(0)">
    <g>
     <animateTransform dur="8s" type="scale" keyTimes="0;0;0.15;0.6;0.605;1" keySplines="0 0 1 1;0 0 1 1;0 0.333333 1 0.666667;0 0 1 1;0 0 1 1" values="0 1;0 1;0.6 1;0.6 1;0 1;0 1" repeatCount="indefinite" calcMode="spline" attributeName="transform"/>
     <g>
      <animateTransform dur="8s" type="scale" keyTimes="0;0;0.15;0.6;0.605;1" keySplines="0 0 1 1;0 0 1 1;0 0.333333 1 0.666667;0 0 1 1;0 0 1 1" values="1 0;1 0;1 0.6;1 0.6;1 0;1 0" repeatCount="indefinite" calcMode="spline" attributeName="transform"/>
      <g transform="skewX(0) skewY(0)">
       <g opacity="1" transform="translate(-475 -200)">
        <path stroke-width="1" id="krug1" stroke-linecap="butt" fill-rule="evenodd" stroke-linejoin="miter" d="M525 200C525 227.614 502.614 250 475 250C447.386 250 425 227.614 425 200C425 172.386 447.386 150 475 150C502.614 150 525 172.386 525 200Z" fill="rgba(255, 255, 255, 1)" stroke="none"/>
       </g>
      </g>
     </g>
    </g>
   </g>
  </g>
 </g>
 <g transform="translate(299 100)">
  <g transform="translate(-196 0)">
   <g transform="rotate(0)">
    <g>
     <animateTransform dur="8s" type="scale" keyTimes="0;0.05;0.15;0.6;0.605;1" keySplines="0 0 1 1;0 0 1 1;0 0.333333 1 0.666667;0 0 1 1;0 0 1 1" values="0 1;0 1;1.5 1;1.5 1;0 1;0 1" repeatCount="indefinite" calcMode="spline" attributeName="transform"/>
     <g>
      <animateTransform dur="8s" type="scale" keyTimes="0;0.05;0.15;0.6;0.605;1" keySplines="0 0 1 1;0 0 1 1;0 0.333333 1 0.666667;0 0 1 1;0 0 1 1" values="1 0;1 0;1 1.5;1 1.5;1 0;1 0" repeatCount="indefinite" calcMode="spline" attributeName="transform"/>
      <g transform="skewX(0) skewY(0)">
       <g transform="translate(-299 -100)">
        <path stroke-width="3" id="krug2b1" stroke-linecap="round" fill-rule="evenodd" stroke-linejoin="round" d="M349 100C349 127.614 326.614 150 299 150C271.386 150 249 127.614 249 100C249 72.3858 271.386 50 299 50C326.614 50 349 72.3858 349 100Z" fill="rgba(255, 255, 255, 0)" stroke="rgba(255, 255, 255, 1)"/>
        <animate dur="8s" keyTimes="0;0.1;0.15;1" keySplines="0 0 1 1;0 0 1 1;0 0 1 1" values="1;1;0;0" repeatCount="indefinite" calcMode="spline" attributeName="opacity"/>
       </g>
      </g>
     </g>
    </g>
   </g>
  </g>
 </g>
 <g transform="translate(475 305)">
  <g transform="translate(-294.156 -205)">
   <g transform="rotate(-90)">
    <g transform="scale(1.4 1.4)">
     <g transform="skewX(0) skewY(0)">
      <g transform="translate(-475 -305)">
       <path stroke-width="7.4" id="crta0" stroke-linecap="round" fill-rule="evenodd" stroke-linejoin="round" d="M0 0" fill="rgba(0, 0, 230, 1)" stroke="rgba(20, 20, 20, 1)">
        <animate dur="8s" keyTimes="0;0.48;0.67;0.885;0.93;1" keySplines="0 0 1 1;0 0 1 1;0 0 1 1;0 0 1 1;0 0 1 1" values="M475 250C475 250 474.884 251.151 474.884 251.151;M475 250C475 250 474.884 251.151 474.884 251.151;M475 250C475 250 475 816.751 475 816.751;M475 250C475 250 475 816.751 475 816.751;M475 800.577C475 800.577 475 816.751 475 816.751;M475 800.577C475 800.577 475 816.751 475 816.751" repeatCount="indefinite" calcMode="spline" attributeName="d"/>
       </path>
       <animate dur="8s" keyTimes="0;0.475;0.48;0.93;0.935;1" keySplines="0 0 1 1;0 0 1 1;0 0.333333 1 0.666667;0 0 1 1;0 0 1 1" values="0;0;1;1;0;0" repeatCount="indefinite" calcMode="spline" attributeName="opacity"/>
      </g>
     </g>
    </g>
   </g>
  </g>
 </g>
 <g transform="translate(475 400)">
  <g transform="translate(422 -300)">
   <g transform="rotate(0)">
    <g>
     <animateTransform dur="8s" type="scale" keyTimes="0;0.67;0.82;0.93;0.97;1" keySplines="0 0 1 1;0 0 1 1;0 0.333333 1 0.666667;0 0 1 1;0 0 1 1" values="0 1;0 1;0.6 1;0.6 1;0 1;0 1" repeatCount="indefinite" calcMode="spline" attributeName="transform"/>
     <g>
      <animateTransform dur="8s" type="scale" keyTimes="0;0.67;0.82;0.93;0.97;1" keySplines="0 0 1 1;0 0 1 1;0 0.333333 1 0.666667;0 0 1 1;0 0 1 1" values="1 0;1 0;1 0.6;1 0.6;1 0;1 0" repeatCount="indefinite" calcMode="spline" attributeName="transform"/>
      <g transform="skewX(0) skewY(0)">
       <g opacity="1" transform="translate(-475 -400)">
        <path stroke-width="1" id="krug2" stroke-linecap="butt" fill-rule="evenodd" stroke-linejoin="miter" d="M525 400C525 427.614 502.614 450 475 450C447.386 450 425 427.614 425 400C425 372.386 447.386 350 475 350C502.614 350 525 372.386 525 400Z" fill="rgba(20, 20, 20, 1)" stroke="none"/>
       </g>
      </g>
     </g>
    </g>
   </g>
  </g>
 </g>
 <g transform="translate(299 100)">
  <g transform="translate(598 0)">
   <g transform="rotate(0)">
    <g>
     <animateTransform dur="8s" type="scale" keyTimes="0;0.72;0.82;1" keySplines="0 0 1 1;0 0 1 1;0 0 1 1" values="0 1;0 1;1.5 1;1.5 1" repeatCount="indefinite" calcMode="spline" attributeName="transform"/>
     <g>
      <animateTransform dur="8s" type="scale" keyTimes="0;0.72;0.82;1" keySplines="0 0 1 1;0 0 1 1;0 0 1 1" values="1 0;1 0;1 1.5;1 1.5" repeatCount="indefinite" calcMode="spline" attributeName="transform"/>
      <g transform="skewX(0) skewY(0)">
       <g transform="translate(-299 -100)">
        <path stroke-width="3" id="krug3b0" stroke-linecap="round" fill-rule="evenodd" stroke-linejoin="round" d="M349 100C349 127.614 326.614 150 299 150C271.386 150 249 127.614 249 100C249 72.3858 271.386 50 299 50C326.614 50 349 72.3858 349 100Z" fill="rgba(255, 255, 255, 0)" stroke="rgba(20, 20, 20, 1)"/>
        <animate dur="8s" keyTimes="0;0.77;0.82;1" keySplines="0 0 1 1;0 0 1 1;0 0 1 1" values="1;1;0;0" repeatCount="indefinite" calcMode="spline" attributeName="opacity"/>
       </g>
      </g>
     </g>
    </g>
   </g>
  </g>
 </g>
 <g transform="translate(475 200)">
  <g transform="translate(-372 -100)">
   <g transform="rotate(0)">
    <g>
     <animateTransform dur="8s" type="scale" keyTimes="0;0.45;0.6;0.82;0.91;1" keySplines="0 0 1 1;0 0 1 1;0 0.333333 1 0.666667;0 0 1 1;0 0 1 1" values="0 1;0 1;0.6 1;0.6 1;0 1;0 1" repeatCount="indefinite" calcMode="spline" attributeName="transform"/>
     <g>
      <animateTransform dur="8s" type="scale" keyTimes="0;0.45;0.6;0.82;0.91;1" keySplines="0 0 1 1;0 0 1 1;0 0.333333 1 0.666667;0 0 1 1;0 0 1 1" values="1 0;1 0;1 0.6;1 0.6;1 0;1 0" repeatCount="indefinite" calcMode="spline" attributeName="transform"/>
      <g transform="skewX(0) skewY(0)">
       <g opacity="1" transform="translate(-475 -200)">
        <path stroke-width="1" id="krug3" stroke-linecap="butt" fill-rule="evenodd" stroke-linejoin="miter" d="M525 200C525 227.614 502.614 250 475 250C447.386 250 425 227.614 425 200C425 172.386 447.386 150 475 150C502.614 150 525 172.386 525 200Z" fill="rgba(20, 20, 20, 1)" stroke="none"/>
       </g>
      </g>
     </g>
    </g>
   </g>
  </g>
 </g>
 <g transform="translate(299 100)">
  <g transform="translate(-196 0)">
   <g transform="rotate(0)">
    <g>
     <animateTransform dur="8s" type="scale" keyTimes="0;0.5;0.6;1" keySplines="0 0 1 1;0 0 1 1;0 0 1 1" values="0 1;0 1;1.5 1;1.5 1" repeatCount="indefinite" calcMode="spline" attributeName="transform"/>
     <g>
      <animateTransform dur="8s" type="scale" keyTimes="0;0.5;0.6;1" keySplines="0 0 1 1;0 0 1 1;0 0 1 1" values="1 0;1 0;1 1.5;1 1.5" repeatCount="indefinite" calcMode="spline" attributeName="transform"/>
      <g transform="skewX(0) skewY(0)">
       <g transform="translate(-299 -100)">
        <path stroke-width="3" id="krug2b0" stroke-linecap="round" fill-rule="evenodd" stroke-linejoin="round" d="M349 100C349 127.614 326.614 150 299 150C271.386 150 249 127.614 249 100C249 72.3858 271.386 50 299 50C326.614 50 349 72.3858 349 100Z" fill="rgba(255, 255, 255, 0)" stroke="rgba(20, 20, 20, 1)"/>
        <animate dur="8s" keyTimes="0;0.55;0.6;1" keySplines="0 0 1 1;0 0 1 1;0 0 1 1" values="1;1;0;0" repeatCount="indefinite" calcMode="spline" attributeName="opacity"/>
       </g>
      </g>
     </g>
    </g>
   </g>
  </g>
 </g>
 <defs/>
</svg>
