<?xml version="1.0" encoding="UTF-8" standalone="no"?>
<!-- Created with Friction - https://friction.graphics -->

<svg width="720" xmlns="http://www.w3.org/2000/svg" viewBox="0 0 720 300" height="300" xmlns:xlink="http://www.w3.org/1999/xlink">
 <g transform="translate(360 151)">
  <g transform="translate(0 0)">
   <g transform="translate(0 0)">
    <g transform="rotate(0)">
     <g transform="scale(1 1)">
      <g transform="skewX(0) skewY(0)">
       <g transform="translate(-360 -151)" opacity="1">
        <g id="BannerA1">
         <g transform="translate(5 5)">
          <g transform="translate(0 0)">
           <g transform="rotate(0)">
            <g transform="scale(1 1)">
             <g transform="skewX(0) skewY(0)">
              <g transform="translate(-5 -5)" opacity="1">
               <rect x="0" stroke-linecap="round" width="720" stroke="none" stroke-linejoin="round" stroke-width="10" height="300" y="0" rx="0" id="backw" fill="rgba(204, 204, 204, 1)" ry="0"/>
              </g>
             </g>
            </g>
           </g>
          </g>
         </g>
         <g transform="translate(360 0)">
          <g transform="translate(0 300)">
           <g transform="rotate(180)">
            <g transform="scale(1 1)">
             <g transform="skewX(0) skewY(0)">
              <g transform="translate(-360 0)" opacity="1">
               <rect x="0" stroke-linecap="round" width="720" stroke="none" stroke-linejoin="round" stroke-width="10" rx="0" id="backb" fill="rgba(20, 20, 20, 1)" ry="0">
                <animate keySplines="0 0 1 1;0.333333 0.333333 0.666667 0.666667" attributeName="y" keyTimes="0;0;1" values="0;0;0" fill="freeze" dur="6.1875s" calcMode="spline"/>
                <animate keySplines="0 0 1 1;0.333333 0.333352 0.666666 0.666681;0.333333 0.333323 0.666667 0.666659;1 1 0 8.08749e-06;0.333333 0.333333 0.666667 0.666667;0.333334 0.333311 0.664878 0.832439;0.333001 0.75 0.6664 1;0.3332 6.40599e-14 0.6668 1;0.333333 0.333333 0.666667 0.666667;0.333333 0.333333 0.666667 0.666667;0.333333 0.333333 0.666667 0.666667;0.333333 0.333333 0.666667 0.666667" attributeName="height" keyTimes="0;0;0.171717;0.222222;0.242424;0.242424;0.252525;0.25589;0.262626;0.282828;0.333333;0.505051;1" values="0;0;204;263.999;287.999;287.999;300;300;300;300;300;300;300" fill="freeze" dur="6.1875s" calcMode="spline"/>
               </rect>
              </g>
             </g>
            </g>
           </g>
          </g>
         </g>
         <g transform="translate(5 5)">
          <g transform="translate(0 83)">
           <g transform="rotate(0)">
            <g transform="scale(1 1)">
             <g transform="skewX(0) skewY(0)">
              <g transform="translate(-5 -5)" opacity="1">
               <rect stroke-linecap="round" stroke="none" stroke-linejoin="round" stroke-width="10" rx="0" id="orange" fill="rgba(255, 120, 0, 1)" ry="0">
                <animate keySplines="0 0 1 1;0.333333 0.333333 0.666667 0.666667" attributeName="x" keyTimes="0;0;1" values="0;0;0" fill="freeze" dur="6.1875s" calcMode="spline"/>
                <animate keySplines="0 0 1 1;0.333333 0.333333 0.666667 0.666667" attributeName="y" keyTimes="0;0;1" values="0;0;0" fill="freeze" dur="6.1875s" calcMode="spline"/>
                <animate keySplines="0 0 1 1;0.333333 0.333333 0.666667 0.666667;0.333333 0.333333 0.666667 0.666667;0.323101 0 0.676899 1;0.355875 0 0.694843 0.25;0.446489 0.223244 0.666658 0.666673;0.333325 0.333339 0.666671 0.666663;0.333335 0.333332 0.666669 0.666665;0.333342 0.333327 0.553511 0.776756;0.305157 0.75 0.644125 1;0.323101 1.4877e-14 0.676899 1;0.333333 0.333333 0.666667 0.666667;0.333333 0.333333 0.666667 0.666667;0.333333 0.333333 0.666667 0.666667;0.333333 0.333333 0.666667 0.666667;0.333333 0.333333 0.666667 0.666667;0.333333 0.333333 0.666667 0.666667" attributeName="width" keyTimes="0;0;0.0909091;0.121212;0.128159;0.131313;0.141414;0.151515;0.181818;0.191919;0.195073;0.20202;0.212121;0.252525;0.313131;0.414141;0.780303;1" values="0;0;0;0;0;0;120.005;240;599.995;720;720;720;720;720;720;720;720;720" fill="freeze" dur="6.1875s" calcMode="spline"/>
                <animate keySplines="0 0 1 1;0.333333 0.333333 0.666667 0.666667;0.333333 0.333333 0.666667 0.666667;0.333333 0.333333 0.666667 0.666667;0.333264 0 0.666736 1;0.333471 0 0.666839 0.25;0.334264 0.167132 0.666666 0.666689;0.333333 0.333356 0.666667 0.666642;0.333333 0.333333 0.666667 0.666659;0.333333 0.33334 0.666667 0.666676;0.333333 0.333324 0.666667 0.666668;0.333333 0.333358 0.666667 0.666644;0.333334 0.333311 0.665736 0.832868;0.333161 0.75 0.666529 1;0.333264 3.11084e-13 0.666736 1;0.333333 0.333333 0.666667 0.666667;0.333333 0.333333 0.666667 0.666667;0.333333 0.333333 0.666667 0.666667;0.333333 0.333333 0.666667 0.666667" attributeName="height" keyTimes="0;0;0.171717;0.222222;0.242424;0.24916;0.252525;0.262626;0.272727;0.30303;0.434343;0.484848;0.494949;0.505051;0.508416;0.515152;0.525253;0.555556;0.666667;1" values="3;3;3;3;3;3;3;11.6405;20.2798;46.1998;158.52;201.72;210.359;219;219;219;219;219;219;219" fill="freeze" dur="6.1875s" calcMode="spline"/>
               </rect>
              </g>
             </g>
            </g>
           </g>
          </g>
         </g>
         <g transform="translate(5 5)">
          <g transform="translate(0 80)">
           <g transform="rotate(0)">
            <g transform="scale(1 1)">
             <g transform="skewX(0) skewY(0)">
              <g transform="translate(-5 -5)" opacity="1">
               <rect stroke-linecap="round" stroke="none" stroke-linejoin="round" stroke-width="10" height="7" y="0" rx="0" id="white" fill="rgba(255, 255, 255, 1)" ry="0">
                <animate keySplines="0 0 1 1;0.333333 0.333333 0.666667 0.666667" attributeName="x" keyTimes="0;0;1" values="0;0;0" fill="freeze" dur="6.1875s" calcMode="spline"/>
                <animate keySplines="0 0 1 1;0.333333 0.333333 0.666667 0.666667;0.333333 0.333333 0.666667 0.666667;0.325331 0 0.674669 1;0.350581 2.62192e-16 0.688226 0.25;0.00033222 0.000166089 0.999796 0.999796;0.333314 0.333351 0.666686 0.666649;0.000204129 0.000204137 0.999668 0.999834;0.311774 0.75 0.649419 1;0.325331 0 0.674669 1;0.333333 0.333333 0.666667 0.666667;0.333333 0.333333 0.666667 0.666667;0.333333 0.333333 0.666667 0.666667;0.333333 0.333333 0.666667 0.666667" attributeName="width" keyTimes="0;0;0.131313;0.171717;0.178617;0.181818;0.20202;0.232323;0.252525;0.255727;0.262626;0.272727;0.313131;0.464646;1" values="0;0;0;0;0;0;205.721;514.279;720;720;720;720;720;720;720" fill="freeze" dur="6.1875s" calcMode="spline"/>
               </rect>
              </g>
             </g>
            </g>
           </g>
          </g>
         </g>
         <g transform="translate(0 0)">
          <g transform="translate(37.3432 130.221)">
           <g transform="rotate(0)">
            <g transform="scale(1 1)">
             <g transform="skewX(0) skewY(0)">
              <g transform="translate(0 0)">
               <g stroke-linecap="round" font-size="21" font-family="Rubik Light, Rubik" stroke="none" text-anchor="start" stroke-linejoin="round" stroke-width="10" id="popdnaslov" fill="rgba(255, 255, 255, 1)">
                <text letter-spacing="-0.02em" word-spacing="0em">
                 <tspan x="0">NoBox uses a professional video encoder </tspan>
                 <tspan x="0" dy="1.2em">to turn camera input into a live stream in real time .</tspan>
                 <tspan x="0" dy="1.2em"></tspan>
                 <tspan x="0" dy="1.2em">No extra hardware, no complex setup. </tspan>
                 <tspan x="0" dy="1.2em"></tspan>
                 <tspan x="0" dy="1.2em">Flexibility, stability, and top-tier image quality.</tspan>
                </text>
               </g>
               <animate keySplines="0 0 1 1;0 0 1 1;0 0 1 1" attributeName="opacity" keyTimes="0;0.494949;0.505051;1" values="0;0;1;1" fill="freeze" dur="6.1875s" calcMode="spline"/>
              </g>
             </g>
            </g>
           </g>
          </g>
         </g>
         <g transform="translate(5 5)">
          <g transform="translate(0 300)">
           <g transform="rotate(0)">
            <g transform="scale(1 1)">
             <g transform="skewX(0) skewY(0)">
              <g transform="translate(-5 -5)">
               <rect x="0" stroke-linecap="round" width="720" stroke="none" stroke-linejoin="round" stroke-width="10" rx="0" id="orangemask" fill="rgba(255, 120, 0, 1)" ry="0">
                <animate keySplines="0 0 1 1;0.333333 0.333333 0.666667 0.666667;0.333333 0.333333 0.666667 0.666667;0.333333 0.333333 0.666667 0.666667;0.333333 0.333333 0.666667 0.666667;0.333281 0 0.666719 1;0.333439 0 0.666798 0.25;0.334044 0.167022 0.666667 0.666689;0.333333 0.333356 0.666667 0.666642;0.333333 0.333333 0.666667 0.666659;0.333333 0.33334 0.666667 0.666676;0.333333 0.333324 0.666667 0.666668;0.333333 0.333358 0.666667 0.666644;0.333333 0.333311 0.665956 0.832978;0.333202 0.75 0.666561 1;0.333281 0 0.666719 1;0.333333 0.333333 0.666667 0.666667;0.333333 0.333333 0.666667 0.666667;0.333333 0.333333 0.666667 0.666667" attributeName="y" keyTimes="0;0;0.333333;0.444444;0.484848;0.494949;0.501685;0.505051;0.515152;0.525253;0.555556;0.686869;0.737374;0.747475;0.757576;0.760942;0.767677;0.787879;0.838384;1" values="-200;-200;-200;-200;-200;-200;-200;-200;-192.452;-184.904;-162.26;-64.136;-26.3959;-18.8484;-11.3;-11.3;-11.3;-11.3;-11.3;-11.3" fill="freeze" dur="6.1875s" calcMode="spline"/>
                <animate keySplines="0 0 1 1;0.333333 0.333333 0.666667 0.666667;0.333333 0.333333 0.666667 0.666667;0.333333 0.333333 0.666667 0.666667;0.333333 0.333333 0.666667 0.666667;0.333281 0 0.666719 1;0.333439 0 0.666798 0.25;0.334044 0.167022 0.666667 0.666689;0.333333 0.333356 0.666667 0.666642;0.333333 0.333333 0.666667 0.666659;0.333333 0.33334 0.666667 0.666676;0.333333 0.333324 0.666667 0.666668;0.333333 0.333358 0.666667 0.666644;0.333333 0.333311 0.665956 0.832978;0.333202 0.75 0.666561 1;0.333281 0 0.666719 1;0.333333 0.333333 0.666667 0.666667;0.333333 0.333333 0.666667 0.666667;0.333333 0.333333 0.666667 0.666667" attributeName="height" keyTimes="0;0;0.333333;0.444444;0.484848;0.494949;0.501685;0.505051;0.515152;0.525253;0.555556;0.686869;0.737374;0.747475;0.757576;0.760942;0.767677;0.787879;0.838384;1" values="200;200;200;200;200;200;200;200;192.452;184.904;162.26;64.136;26.3959;18.8484;11.3;11.3;11.3;11.3;11.3;11.3" fill="freeze" dur="6.1875s" calcMode="spline"/>
               </rect>
               <animate keySplines="0 0 1 1;0 0 1 1;0 0 1 1" attributeName="opacity" keyTimes="0;0.494949;0.505051;1" values="0;0;1;1" fill="freeze" dur="6.1875s" calcMode="spline"/>
              </g>
             </g>
            </g>
           </g>
          </g>
         </g>
         <g transform="translate(5 5)">
          <g transform="translate(0 300)">
           <g transform="rotate(0)">
            <g transform="scale(1 1)">
             <g transform="skewX(0) skewY(0)">
              <g transform="translate(-5 -5)" opacity="0">
               <rect x="0" stroke-linecap="round" width="720" stroke="none" stroke-linejoin="round" stroke-width="10" height="11.3" y="-11.3" rx="0" id="orangemaskzamjena" fill="rgba(255, 120, 0, 1)" ry="0"/>
              </g>
             </g>
            </g>
           </g>
          </g>
         </g>
         <g transform="translate(0 0)">
          <g transform="translate(37 52)">
           <g transform="rotate(0)">
            <g transform="scale(1 1)">
             <g transform="skewX(0) skewY(0)">
              <g transform="translate(0 0)" opacity="1">
               <g stroke-linecap="round" font-size="27.299999" font-family="Rubik Light, Rubik" stroke="none" text-anchor="start" stroke-linejoin="round" stroke-width="10" id="naslov" font-weight="500" fill="rgba(204, 204, 204, 1)">
                <text letter-spacing="0em" word-spacing="0em">
                 <tspan x="0">VIDEO ENCODER</tspan>
                </text>
               </g>
              </g>
             </g>
            </g>
           </g>
          </g>
         </g>
         <g transform="translate(32 31)">
          <g transform="translate(316.925 11.445)">
           <g transform="rotate(-180)">
            <g transform="scale(0.8 0.8)">
             <g transform="skewX(0) skewY(0)">
              <g transform="translate(-32 -31)" opacity="1">
               <g id="kamera">
                <g transform="translate(32 31)">
                 <g transform="translate(0 0)">
                  <g transform="rotate(0)">
                   <g transform="scale(1 1)">
                    <g transform="skewX(0) skewY(0)">
                     <g transform="translate(-32 -31)">
                      <path stroke-linecap="butt" stroke="none" stroke-linejoin="miter" stroke-width="1" d="M62.102 11.59C60.926 10.86 59.457 10.797 58.211 11.414C58.211 11.414 48 16.516 48 16.516C48 16.516 48 11 48 11C48 8.789 46.211 7 44 7C44 7 4 7 4 7C1.789 7 0 8.789 0 11C0 11 0 51 0 51C0 53.203 1.789 55 4 55C4 55 44 55 44 55C46.211 55 48 53.203 48 51C48 51 48 45.465 48 45.465C48 45.465 58.211 50.57 58.211 50.57C58.777 50.851 59.387 50.992 60 50.992C60.73 50.992 61.461 50.793 62.102 50.394C63.282 49.664 64 48.378 64 46.992C64 46.992 64 14.992 64 14.992C64 13.605 63.281 12.32 62.102 11.59ZM56 40.52C56 40.52 45.789 35.415 45.789 35.415C43.812 34.438 41.414 35.227 40.422 37.204C40.133 37.782 40.039 38.392 40.039 39.001C40.039 39.001 40 39.001 40 39.001C40 39.001 40 47.001 40 47.001C40 47.001 8 47.001 8 47.001C8 47.001 8 15 8 15C8 15 40 15 40 15C40 15 40 23 40 23C40 23 40.039 23 40.039 23C40.039 23.598 40.133 24.203 40.422 24.777C41.41 26.754 43.813 27.547 45.789 26.566C45.789 26.566 56 21.465 56 21.465C56 21.465 56 40.52 56 40.52Z" id="Path" fill-rule="evenodd" fill="rgba(204, 204, 204, 1)"/>
                      <animate keySplines="0 0 1 1;0 0 1 1;0 0 1 1" attributeName="opacity" keyTimes="0;0.747475;0.757576;1" values="0;0;1;1" fill="freeze" dur="6.1875s" calcMode="spline"/>
                     </g>
                    </g>
                   </g>
                  </g>
                 </g>
                </g>
                <g transform="translate(32 31.0005)">
                 <g transform="translate(0 0)">
                  <g transform="rotate(0)">
                   <g transform="scale(1 1)">
                    <g transform="skewX(0) skewY(0)">
                     <g transform="translate(-32 -31.0005)">
                      <path stroke-linecap="butt" stroke="none" stroke-linejoin="miter" stroke-width="1" d="M56 40.52C56 40.52 45.789 35.415 45.789 35.415C43.812 34.438 41.414 35.227 40.422 37.204C40.133 37.782 40.039 38.392 40.039 39.001C40.039 39.001 40 39.001 40 39.001C40 39.001 40 47.001 40 47.001C40 47.001 8 47.001 8 47.001C8 47.001 8 15 8 15C8 15 40 15 40 15C40 15 40 23 40 23C40 23 40.039 23 40.039 23C40.039 23.598 40.133 24.203 40.422 24.777C41.41 26.754 43.813 27.547 45.789 26.566C45.789 26.566 56 21.465 56 21.465C56 21.465 56 40.52 56 40.52Z" id="Path0" fill-rule="evenodd" fill="rgba(255, 120, 0, 1)"/>
                      <animate keySplines="0 0 1 1;0 0 1 1;0 0 1 1" attributeName="opacity" keyTimes="0;0.747475;0.757576;1" values="0;0;1;1" fill="freeze" dur="6.1875s" calcMode="spline"/>
                     </g>
                    </g>
                   </g>
                  </g>
                 </g>
                </g>
               </g>
              </g>
             </g>
            </g>
           </g>
          </g>
         </g>
         <g transform="translate(433.031 42.3741)">
          <g transform="translate(14.6 0)">
           <g transform="rotate(0)">
            <g transform="scale(1 1)">
             <g transform="skewX(0) skewY(0)">
              <g transform="translate(-433.031 -42.3741)" opacity="1">
               <g id="cijev">
                <g transform="translate(299 100)">
                 <g transform="translate(98.4351 -57.7003)">
                  <g transform="rotate(0)">
                   <g transform="scale(0.16 0.145)">
                    <g transform="skewX(0) skewY(0)">
                     <g transform="translate(-299 -100)">
                      <path stroke-linecap="butt" stroke="rgba(255, 120, 0, 1)" stroke-linejoin="miter" stroke-width="27.4" d="M349 100C349 127.614 326.614 150 299 150C271.386 150 249 127.614 249 100C249 72.3858 271.386 50 299 50C326.614 50 349 72.3858 349 100Z" id="krug14" fill-rule="evenodd" fill="none"/>
                      <animate keySplines="0 0 1 1;0 0 1 1;0 0 1 1" attributeName="opacity" keyTimes="0;0.747475;0.757576;1" values="0;0;1;1" fill="freeze" dur="6.1875s" calcMode="spline"/>
                     </g>
                    </g>
                   </g>
                  </g>
                 </g>
                </g>
                <g transform="translate(475 305)">
                 <g transform="translate(2.50191 -262.555)">
                  <g transform="rotate(90)">
                   <g transform="scale(1.4 1.4)">
                    <g transform="skewX(0) skewY(0)">
                     <g transform="translate(-475 -305)">
                      <path stroke-linecap="round" stroke="rgba(204, 204, 204, 1)" stroke-linejoin="round" stroke-width="13.2" d="M475 311.832C475 311.832 475 360 475 360" id="crta8" fill-rule="evenodd" fill="rgba(0, 0, 230, 1)"/>
                      <animate keySplines="0 0 1 1;0 0 1 1;0 0 1 1" attributeName="opacity" keyTimes="0;0.747475;0.757576;1" values="0;0;1;1" fill="freeze" dur="6.1875s" calcMode="spline"/>
                     </g>
                    </g>
                   </g>
                  </g>
                 </g>
                </g>
                <g transform="translate(299 100)">
                 <g transform="translate(169.628 -57.555)">
                  <g transform="rotate(0)">
                   <g transform="scale(0.16 0.145)">
                    <g transform="skewX(0) skewY(0)">
                     <g transform="translate(-299 -100)">
                      <path stroke-linecap="butt" stroke="rgba(255, 120, 0, 1)" stroke-linejoin="miter" stroke-width="27.4" d="M349 100C349 127.614 326.614 150 299 150C271.386 150 249 127.614 249 100C249 72.3858 271.386 50 299 50C326.614 50 349 72.3858 349 100Z" id="krug13" fill-rule="evenodd" fill="rgba(204, 204, 204, 1)"/>
                      <animate keySplines="0 0 1 1;0 0 1 1;0 0 1 1" attributeName="opacity" keyTimes="0;0.747475;0.757576;1" values="0;0;1;1" fill="freeze" dur="6.1875s" calcMode="spline"/>
                     </g>
                    </g>
                   </g>
                  </g>
                 </g>
                </g>
               </g>
              </g>
             </g>
            </g>
           </g>
          </g>
         </g>
         <g transform="translate(5 5)">
          <g transform="translate(520.911 26.445)">
           <g transform="rotate(0)">
            <g transform="scale(1 1)">
             <g transform="skewX(0) skewY(0)">
              <g transform="translate(-5 -5)">
               <rect x="0" stroke-linecap="round" width="46.447" stroke="rgba(204, 204, 204, 1)" stroke-linejoin="round" stroke-width="7" height="32" y="0" rx="0" id="encoder" fill="rgba(255, 120, 0, 1)" ry="0"/>
               <animate keySplines="0 0 1 1;0 0 1 1;0 0 1 1" attributeName="opacity" keyTimes="0;0.747475;0.757576;1" values="0;0;1;1" fill="freeze" dur="6.1875s" calcMode="spline"/>
              </g>
             </g>
            </g>
           </g>
          </g>
         </g>
         <g transform="translate(609 42.6008)">
          <g transform="translate(25.7 0)">
           <g transform="rotate(0)">
            <g transform="scale(1 1)">
             <g transform="skewX(0) skewY(0)">
              <g transform="translate(-609 -42.6008)" opacity="1">
               <g id="ekodirano">
                <g transform="translate(299 100)">
                 <g transform="translate(280 -57.555)">
                  <g transform="rotate(0)">
                   <g transform="scale(0.16 0.145)">
                    <g transform="skewX(0) skewY(0)">
                     <g transform="translate(-299 -100)">
                      <path stroke-linecap="butt" stroke="rgba(255, 120, 0, 1)" stroke-linejoin="miter" stroke-width="27.4" d="M349 100C349 127.614 326.614 150 299 150C271.386 150 249 127.614 249 100C249 72.3858 271.386 50 299 50C326.614 50 349 72.3858 349 100Z" id="krug15" fill-rule="evenodd" fill="rgba(255, 120, 0, 1)"/>
                      <animate keySplines="0 0 1 1;0 0 1 1;0 0 1 1" attributeName="opacity" keyTimes="0;0.747475;0.757576;1" values="0;0;1;1" fill="freeze" dur="6.1875s" calcMode="spline"/>
                     </g>
                    </g>
                   </g>
                  </g>
                 </g>
                </g>
                <g transform="translate(299 100)">
                 <g transform="translate(290 -57.2434)">
                  <g transform="rotate(0)">
                   <g transform="scale(0.16 0.145)">
                    <g transform="skewX(0) skewY(0)">
                     <g transform="translate(-299 -100)">
                      <path stroke-linecap="butt" stroke="rgba(204, 204, 204, 1)" stroke-linejoin="miter" stroke-width="27.4" d="M349 100C349 127.614 326.614 150 299 150C271.386 150 249 127.614 249 100C249 72.3858 271.386 50 299 50C326.614 50 349 72.3858 349 100Z" id="krug16" fill-rule="evenodd" fill="rgba(204, 204, 204, 1)"/>
                      <animate keySplines="0 0 1 1;0 0 1 1;0 0 1 1" attributeName="opacity" keyTimes="0;0.747475;0.757576;1" values="0;0;1;1" fill="freeze" dur="6.1875s" calcMode="spline"/>
                     </g>
                    </g>
                   </g>
                  </g>
                 </g>
                </g>
                <g transform="translate(299 100)">
                 <g transform="translate(300 -57.555)">
                  <g transform="rotate(0)">
                   <g transform="scale(0.16 0.145)">
                    <g transform="skewX(0) skewY(0)">
                     <g transform="translate(-299 -100)">
                      <path stroke-linecap="butt" stroke="rgba(255, 120, 0, 1)" stroke-linejoin="miter" stroke-width="27.4" d="M349 100C349 127.614 326.614 150 299 150C271.386 150 249 127.614 249 100C249 72.3858 271.386 50 299 50C326.614 50 349 72.3858 349 100Z" id="krug17" fill-rule="evenodd" fill="rgba(255, 120, 0, 1)"/>
                      <animate keySplines="0 0 1 1;0 0 1 1;0 0 1 1" attributeName="opacity" keyTimes="0;0.747475;0.757576;1" values="0;0;1;1" fill="freeze" dur="6.1875s" calcMode="spline"/>
                     </g>
                    </g>
                   </g>
                  </g>
                 </g>
                </g>
                <g transform="translate(299 100)">
                 <g transform="translate(310 -57.2434)">
                  <g transform="rotate(0)">
                   <g transform="scale(0.16 0.145)">
                    <g transform="skewX(0) skewY(0)">
                     <g transform="translate(-299 -100)">
                      <path stroke-linecap="butt" stroke="rgba(204, 204, 204, 1)" stroke-linejoin="miter" stroke-width="27.4" d="M349 100C349 127.614 326.614 150 299 150C271.386 150 249 127.614 249 100C249 72.3858 271.386 50 299 50C326.614 50 349 72.3858 349 100Z" id="krug18" fill-rule="evenodd" fill="rgba(204, 204, 204, 1)"/>
                      <animate keySplines="0 0 1 1;0 0 1 1;0 0 1 1" attributeName="opacity" keyTimes="0;0.747475;0.757576;1" values="0;0;1;1" fill="freeze" dur="6.1875s" calcMode="spline"/>
                     </g>
                    </g>
                   </g>
                  </g>
                 </g>
                </g>
                <g transform="translate(299 100)">
                 <g transform="translate(320 -57.555)">
                  <g transform="rotate(0)">
                   <g transform="scale(0.16 0.145)">
                    <g transform="skewX(0) skewY(0)">
                     <g transform="translate(-299 -100)">
                      <path stroke-linecap="butt" stroke="rgba(255, 120, 0, 1)" stroke-linejoin="miter" stroke-width="27.4" d="M349 100C349 127.614 326.614 150 299 150C271.386 150 249 127.614 249 100C249 72.3858 271.386 50 299 50C326.614 50 349 72.3858 349 100Z" id="krug19" fill-rule="evenodd" fill="rgba(255, 120, 0, 1)"/>
                      <animate keySplines="0 0 1 1;0 0 1 1;0 0 1 1" attributeName="opacity" keyTimes="0;0.747475;0.757576;1" values="0;0;1;1" fill="freeze" dur="6.1875s" calcMode="spline"/>
                     </g>
                    </g>
                   </g>
                  </g>
                 </g>
                </g>
                <g transform="translate(299 100)">
                 <g transform="translate(330 -57.2434)">
                  <g transform="rotate(0)">
                   <g transform="scale(0.16 0.145)">
                    <g transform="skewX(0) skewY(0)">
                     <g transform="translate(-299 -100)">
                      <path stroke-linecap="butt" stroke="rgba(204, 204, 204, 1)" stroke-linejoin="miter" stroke-width="27.4" d="M349 100C349 127.614 326.614 150 299 150C271.386 150 249 127.614 249 100C249 72.3858 271.386 50 299 50C326.614 50 349 72.3858 349 100Z" id="krug20" fill-rule="evenodd" fill="rgba(204, 204, 204, 1)"/>
                      <animate keySplines="0 0 1 1;0 0 1 1;0 0 1 1" attributeName="opacity" keyTimes="0;0.747475;0.757576;1" values="0;0;1;1" fill="freeze" dur="6.1875s" calcMode="spline"/>
                     </g>
                    </g>
                   </g>
                  </g>
                 </g>
                </g>
                <g transform="translate(299 100)">
                 <g transform="translate(340 -57.555)">
                  <g transform="rotate(0)">
                   <g transform="scale(0.16 0.145)">
                    <g transform="skewX(0) skewY(0)">
                     <g transform="translate(-299 -100)">
                      <path stroke-linecap="butt" stroke="rgba(255, 120, 0, 1)" stroke-linejoin="miter" stroke-width="27.4" d="M349 100C349 127.614 326.614 150 299 150C271.386 150 249 127.614 249 100C249 72.3858 271.386 50 299 50C326.614 50 349 72.3858 349 100Z" id="krug21" fill-rule="evenodd" fill="rgba(255, 120, 0, 1)"/>
                      <animate keySplines="0 0 1 1;0 0 1 1;0 0 1 1" attributeName="opacity" keyTimes="0;0.747475;0.757576;1" values="0;0;1;1" fill="freeze" dur="6.1875s" calcMode="spline"/>
                     </g>
                    </g>
                   </g>
                  </g>
                 </g>
                </g>
               </g>
              </g>
             </g>
            </g>
           </g>
          </g>
         </g>
         <g transform="translate(5 5)">
          <g transform="translate(685.25 57.495)">
           <g transform="rotate(180)">
            <g transform="scale(1 1)">
             <g transform="skewX(0) skewY(0)">
              <g transform="translate(-5 -5)">
               <rect stroke-linecap="round" stroke="none" stroke-linejoin="round" stroke-width="7" height="50.1" y="0" rx="0" id="crtezmaska" fill="rgba(20, 20, 20, 1)" ry="0">
                <animate keySplines="0 0 1 1;0.333333 0.333333 0.666667 0.666667" attributeName="x" keyTimes="0;0;1" values="0;0;0" fill="freeze" dur="6.1875s" calcMode="spline"/>
                <animate keySplines="0 0 1 1;0.333333 0.333333 0.666667 0.666667;0.333333 0.333333 0.666667 0.666667;0.333333 0.333333 0.666667 0.666667;0.333333 0.333333 0.666667 0.666667;0.332731 0 0.667269 1;0.334545 0 0.668181 0.25;0.341353 0.170676 0.666667 0.666666;0.333333 0.333331 0.666667 0.666667;0.333333 0.333335 0.666667 0.666663;0.333333 0.333338 0.666667 0.666664;0.333333 0.333334 0.658647 0.829324;0.331819 0.75 0.665455 1;0.332731 0 0.667269 1;0.333333 0.333333 0.666667 0.666667;0.333333 0.333333 0.666667 0.666667" attributeName="width" keyTimes="0;0;0.505051;0.676768;0.727273;0.747475;0.754221;0.757576;0.767677;0.79798;0.878788;0.89899;0.909091;0.912446;0.919192;0.939394;1" values="392.747;392.747;392.747;392.747;392.747;392.747;392.747;392.747;367.057;289.987;84.469;33.0897;7.4;7.4;7.4;7.4;7.4" fill="freeze" dur="6.1875s" calcMode="spline"/>
               </rect>
               <animate keySplines="0 0 1 1;0 0 1 1;0 0 1 1" attributeName="opacity" keyTimes="0;0.232323;0.252525;1" values="0;0;1;1" fill="freeze" dur="6.1875s" calcMode="spline"/>
              </g>
             </g>
            </g>
           </g>
          </g>
         </g>
        </g>
       </g>
      </g>
     </g>
    </g>
   </g>
  </g>
 </g>
 <defs/>
</svg>
