<?xml version="1.0" encoding="UTF-8" standalone="no"?>
<!-- Created with Friction - https://friction.graphics -->

<svg xmlns:xlink="http://www.w3.org/1999/xlink" viewBox="0 0 1600 960" xmlns="http://www.w3.org/2000/svg">
 <g transform="translate(800 480)">
  <g transform="translate(0 0)">
   <g transform="rotate(0)">
    <g transform="scale(1 1)">
     <g transform="skewX(0) skewY(0)">
      <g opacity="1" transform="translate(-800 -480)">
       <rect stroke="none" stroke-linejoin="round" x="0" fill="rgba(20, 20, 20, 1)" rx="0" ry="0" width="1600" height="960" stroke-linecap="round" id="RectangleBox1" y="0" stroke-width="10"/>
      </g>
     </g>
    </g>
   </g>
  </g>
 </g>
 <g transform="translate(1086.99 660.456)">
  <g transform="translate(-200 -180.456)">
   <g transform="rotate(0)">
    <g transform="scale(0.7 0.7)">
     <g transform="skewX(0) skewY(0)">
      <g opacity="1" transform="translate(-1086.99 -660.456)">
       <g id="Group0">
        <g transform="translate(0 0)">
         <g transform="translate(831.9 701.272)">
          <g transform="rotate(0)">
           <g transform="scale(1 1)">
            <g transform="skewX(0) skewY(0)">
             <g opacity="1" transform="translate(0 0)">
              <path stroke="none" stroke-linejoin="round" fill="rgba(204, 204, 204, 1)" stroke-linecap="round" id="Path0" d="M8.8 0C8.13333 0 7.53334 -0.249997 7 -0.75C6.46666 -1.25 6.2 -1.86666 6.2 -2.6C6.2 -2.6 6.2 -67.4 6.2 -67.4C6.2 -68.1333 6.46666 -68.75 7 -69.25C7.53334 -69.75 8.13333 -70 8.8 -70C8.8 -70 22.1 -70 22.1 -70C23.3 -70 24.1667 -69.7333 24.7 -69.2C25.2333 -68.6667 25.6 -68.2333 25.8 -67.9C25.8 -67.9 46.4 -34.8 46.4 -34.8C46.4 -34.8 46.4 -67.4 46.4 -67.4C46.4 -68.1333 46.6667 -68.75 47.2 -69.25C47.7333 -69.75 48.3667 -70 49.1 -70C49.1 -70 64.1 -70 64.1 -70C64.8333 -70 65.45 -69.75 65.95 -69.25C66.45 -68.75 66.7 -68.1333 66.7 -67.4C66.7 -67.4 66.7 -2.6 66.7 -2.6C66.7 -1.86666 66.45 -1.25 65.95 -0.75C65.45 -0.249997 64.8333 0 64.1 0C64.1 0 50.9 0 50.9 0C49.7 0 48.8167 -0.283331 48.25 -0.85C47.6833 -1.41667 47.3 -1.83333 47.1 -2.1C47.1 -2.1 26.5 -33.4 26.5 -33.4C26.5 -33.4 26.5 -2.6 26.5 -2.6C26.5 -1.86666 26.25 -1.25 25.75 -0.75C25.25 -0.249997 24.6333 0 23.9 0C23.9 0 8.8 0 8.8 0ZM104.3 1C98.4333 1 93.4834 0.133342 89.45 -1.6C85.4166 -3.33334 82.3333 -5.88332 80.2 -9.25C78.0667 -12.6167 76.8667 -16.6666 76.6 -21.4C76.5333 -22.8 76.5 -24.3333 76.5 -26C76.5 -27.6667 76.5333 -29.2 76.6 -30.6C76.8667 -35.4 78.1333 -39.4666 80.4 -42.8C82.6667 -46.1334 85.8167 -48.6667 89.85 -50.4C93.8834 -52.1333 98.7 -53 104.3 -53C109.9 -53 114.717 -52.1333 118.75 -50.4C122.783 -48.6667 125.933 -46.1334 128.2 -42.8C130.467 -39.4666 131.733 -35.4 132 -30.6C132.133 -29.2 132.2 -27.6667 132.2 -26C132.2 -24.3333 132.133 -22.8 132 -21.4C131.733 -16.6666 130.533 -12.6167 128.4 -9.25C126.267 -5.88332 123.183 -3.33334 119.15 -1.6C115.117 0.133342 110.167 1 104.3 1ZM104.3 -13.1C106.767 -13.1 108.467 -13.8333 109.4 -15.3C110.333 -16.7667 110.867 -18.9667 111 -21.9C111.067 -22.9 111.1 -24.2667 111.1 -26C111.1 -27.7333 111.067 -29.1 111 -30.1C110.867 -32.9667 110.333 -35.15 109.4 -36.65C108.467 -38.15 106.767 -38.9 104.3 -38.9C101.9 -38.9 100.233 -38.15 99.3 -36.65C98.3667 -35.15 97.8 -32.9667 97.6 -30.1C97.5333 -29.1 97.5 -27.7333 97.5 -26C97.5 -24.2667 97.5333 -22.9 97.6 -21.9C97.8 -18.9667 98.3667 -16.7667 99.3 -15.3C100.233 -13.8333 101.9 -13.1 104.3 -13.1ZM144.4 0C143.733 0 143.133 -0.249997 142.6 -0.75C142.067 -1.25 141.8 -1.86666 141.8 -2.6C141.8 -2.6 141.8 -67.4 141.8 -67.4C141.8 -68.1333 142.067 -68.75 142.6 -69.25C143.133 -69.75 143.733 -70 144.4 -70C144.4 -70 176.3 -70 176.3 -70C182.367 -70 187.333 -69.2 191.2 -67.6C195.067 -66 197.933 -63.7 199.8 -60.7C201.667 -57.7 202.6 -54 202.6 -49.6C202.6 -47.3333 202.15 -45.3167 201.25 -43.55C200.35 -41.7833 199.267 -40.3167 198 -39.15C196.733 -37.9833 195.533 -37.1333 194.4 -36.6C197 -35.4667 199.267 -33.55 201.2 -30.85C203.133 -28.15 204.1 -25.0667 204.1 -21.6C204.1 -16.9333 203.05 -13 200.95 -9.8C198.85 -6.59998 195.817 -4.16668 191.85 -2.5C187.883 -0.833325 183.033 0 177.3 0C177.3 0 144.4 0 144.4 0ZM163.3 -15.1C163.3 -15.1 175 -15.1 175 -15.1C177.267 -15.1 178.933 -15.7833 180 -17.15C181.067 -18.5167 181.6 -20.0333 181.6 -21.7C181.6 -23.4333 181.033 -24.95 179.9 -26.25C178.767 -27.55 177.133 -28.2 175 -28.2C175 -28.2 163.3 -28.2 163.3 -28.2C163.3 -28.2 163.3 -15.1 163.3 -15.1ZM163.3 -42.9C163.3 -42.9 174 -42.9 174 -42.9C176.133 -42.9 177.7 -43.5 178.7 -44.7C179.7 -45.9 180.2 -47.3 180.2 -48.9C180.2 -50.5 179.7 -51.9 178.7 -53.1C177.7 -54.3 176.133 -54.9 174 -54.9C174 -54.9 163.3 -54.9 163.3 -54.9C163.3 -54.9 163.3 -42.9 163.3 -42.9ZM238.8 1C232.933 1 227.983 0.133342 223.95 -1.6C219.917 -3.33334 216.833 -5.88332 214.7 -9.25C212.567 -12.6167 211.367 -16.6666 211.1 -21.4C211.033 -22.8 211 -24.3333 211 -26C211 -27.6667 211.033 -29.2 211.1 -30.6C211.367 -35.4 212.633 -39.4666 214.9 -42.8C217.167 -46.1334 220.317 -48.6667 224.35 -50.4C228.383 -52.1333 233.2 -53 238.8 -53C244.4 -53 249.217 -52.1333 253.25 -50.4C257.283 -48.6667 260.433 -46.1334 262.7 -42.8C264.967 -39.4666 266.233 -35.4 266.5 -30.6C266.633 -29.2 266.7 -27.6667 266.7 -26C266.7 -24.3333 266.633 -22.8 266.5 -21.4C266.233 -16.6666 265.033 -12.6167 262.9 -9.25C260.767 -5.88332 257.683 -3.33334 253.65 -1.6C249.617 0.133342 244.667 1 238.8 1ZM238.8 -13.1C241.267 -13.1 242.967 -13.8333 243.9 -15.3C244.833 -16.7667 245.367 -18.9667 245.5 -21.9C245.567 -22.9 245.6 -24.2667 245.6 -26C245.6 -27.7333 245.567 -29.1 245.5 -30.1C245.367 -32.9667 244.833 -35.15 243.9 -36.65C242.967 -38.15 241.267 -38.9 238.8 -38.9C236.4 -38.9 234.733 -38.15 233.8 -36.65C232.867 -35.15 232.3 -32.9667 232.1 -30.1C232.033 -29.1 232 -27.7333 232 -26C232 -24.2667 232.033 -22.9 232.1 -21.9C232.3 -18.9667 232.867 -16.7667 233.8 -15.3C234.733 -13.8333 236.4 -13.1 238.8 -13.1ZM273.4 0C272.733 0 272.183 -0.233331 271.75 -0.7C271.317 -1.16667 271.1 -1.7 271.1 -2.3C271.1 -2.5 271.133 -2.73333 271.2 -3C271.267 -3.26667 271.4 -3.53333 271.6 -3.8C271.6 -3.8 288 -26.8 288 -26.8C288 -26.8 273.2 -48.2 273.2 -48.2C273.067 -48.4 272.95 -48.6333 272.85 -48.9C272.75 -49.1667 272.7 -49.4333 272.7 -49.7C272.7 -50.3 272.933 -50.8333 273.4 -51.3C273.867 -51.7667 274.4 -52 275 -52C275 -52 290.3 -52 290.3 -52C291.233 -52 291.933 -51.7833 292.4 -51.35C292.867 -50.9167 293.2 -50.5333 293.4 -50.2C293.4 -50.2 300.9 -39.3 300.9 -39.3C300.9 -39.3 308.4 -50.2 308.4 -50.2C308.667 -50.5333 309.017 -50.9167 309.45 -51.35C309.883 -51.7833 310.567 -52 311.5 -52C311.5 -52 326.1 -52 326.1 -52C326.7 -52 327.233 -51.7667 327.7 -51.3C328.167 -50.8333 328.4 -50.3333 328.4 -49.8C328.4 -49.4667 328.367 -49.1667 328.3 -48.9C328.233 -48.6333 328.1 -48.4 327.9 -48.2C327.9 -48.2 312.8 -26.8 312.8 -26.8C312.8 -26.8 329.5 -3.8 329.5 -3.8C329.7 -3.53333 329.833 -3.26667 329.9 -3C329.967 -2.73333 330 -2.5 330 -2.3C330 -1.7 329.767 -1.16667 329.3 -0.7C328.833 -0.233331 328.3 0 327.7 0C327.7 0 311.7 0 311.7 0C310.833 0 310.2 -0.199998 309.8 -0.6C309.4 -1 309.067 -1.36667 308.8 -1.7C308.8 -1.7 300.5 -13.3 300.5 -13.3C300.5 -13.3 291.9 -1.7 291.9 -1.7C291.7 -1.36667 291.383 -1 290.95 -0.6C290.517 -0.199998 289.867 0 289 0C289 0 273.4 0 273.4 0Z" stroke-width="10"/>
             </g>
            </g>
           </g>
          </g>
         </g>
        </g>
        <g transform="translate(171.585 46.937)">
         <g transform="translate(828.415 0)">
          <g>
           <animateTransform dur="6s" keySplines="0 0 1 1;0 0 1 1;0 0 1 1" type="translate" calcMode="spline" fill="freeze" values="0 613.666;0 613.666;0 710.166;0 710.166" attributeName="transform" keyTimes="0;0.336667;0.396667;1"/>
           <g transform="rotate(0)">
            <g transform="scale(1 1)">
             <g transform="skewX(0) skewY(0)">
              <g opacity="1" transform="translate(-171.585 -46.937)">
               <rect stroke="none" stroke-linejoin="round" x="0" fill="rgba(20, 20, 20, 1)" rx="0" ry="0" width="343.17" height="93.8739" stroke-linecap="round" id="RectangleBox" y="0" stroke-width="10"/>
              </g>
             </g>
            </g>
           </g>
          </g>
         </g>
        </g>
        <g transform="translate(0 0)">
         <g transform="translate(1000.56 739.07)">
          <g transform="rotate(0)">
           <g transform="scale(1 1)">
            <g transform="skewX(0) skewY(0)">
             <g opacity="1" transform="translate(0 0)">
              <path stroke="none" stroke-linejoin="round" fill="rgba(255, 120, 0, 1)" stroke-linecap="round" id="Path" d="M-154.426 0.327C-156.192 0.327 -157.69 0.0436029 -158.922 -0.5232C-160.154 -1.09 -161.097 -1.8203 -161.751 -2.7141C-162.405 -3.6079 -162.753 -4.5562 -162.797 -5.559C-162.797 -5.7334 -162.732 -5.886 -162.601 -6.0168C-162.47 -6.1476 -162.306 -6.213 -162.11 -6.213C-162.11 -6.213 -161.456 -6.213 -161.456 -6.213C-161.238 -6.213 -161.069 -6.1476 -160.949 -6.0168C-160.83 -5.886 -160.759 -5.7334 -160.737 -5.559C-160.65 -4.9486 -160.377 -4.34365 -159.919 -3.74415C-159.462 -3.14465 -158.786 -2.64325 -157.892 -2.23995C-156.998 -1.83665 -155.843 -1.635 -154.426 -1.635C-152.289 -1.635 -150.731 -2.02195 -149.75 -2.79585C-148.769 -3.56975 -148.278 -4.61069 -148.278 -5.9187C-148.278 -6.7907 -148.534 -7.49375 -149.047 -8.02785C-149.559 -8.56195 -150.338 -9.04155 -151.385 -9.46665C-152.431 -9.89175 -153.772 -10.3659 -155.407 -10.8891C-156.955 -11.3905 -158.23 -11.9082 -159.233 -12.4424C-160.235 -12.9765 -160.971 -13.625 -161.44 -14.388C-161.909 -15.151 -162.143 -16.132 -162.143 -17.331C-162.143 -18.4428 -161.849 -19.4401 -161.26 -20.3231C-160.671 -21.206 -159.816 -21.909 -158.693 -22.4322C-157.57 -22.9554 -156.202 -23.217 -154.589 -23.217C-153.303 -23.217 -152.18 -23.0426 -151.221 -22.6938C-150.262 -22.345 -149.466 -21.8818 -148.834 -21.3041C-148.202 -20.7263 -147.722 -20.1051 -147.395 -19.4402C-147.068 -18.7752 -146.894 -18.1267 -146.872 -17.4945C-146.872 -17.3419 -146.927 -17.1948 -147.036 -17.0531C-147.145 -16.9114 -147.319 -16.8405 -147.559 -16.8405C-147.559 -16.8405 -148.213 -16.8405 -148.213 -16.8405C-148.322 -16.8405 -148.458 -16.8841 -148.622 -16.9713C-148.785 -17.0585 -148.889 -17.2329 -148.932 -17.4945C-149.063 -18.5845 -149.635 -19.4837 -150.649 -20.1923C-151.663 -20.9008 -152.976 -21.255 -154.589 -21.255C-156.202 -21.255 -157.521 -20.9389 -158.546 -20.3067C-159.571 -19.6745 -160.083 -18.6826 -160.083 -17.331C-160.083 -16.459 -159.854 -15.7451 -159.396 -15.1892C-158.938 -14.6332 -158.219 -14.1428 -157.238 -13.7177C-156.257 -13.2925 -154.993 -12.8293 -153.445 -12.3279C-151.81 -11.8047 -150.458 -11.2815 -149.39 -10.7583C-148.322 -10.2351 -147.526 -9.59745 -147.003 -8.84535C-146.48 -8.09325 -146.218 -7.11771 -146.218 -5.9187C-146.218 -4.58889 -146.551 -3.46075 -147.215 -2.53425C-147.88 -1.60775 -148.823 -0.899252 -150.044 -0.40875C-151.265 0.0817524 -152.725 0.327 -154.426 0.327ZM-136.212 0C-137.345 0 -138.239 -0.239798 -138.893 -0.7194C-139.547 -1.199 -140.005 -1.853 -140.267 -2.6814C-140.528 -3.5098 -140.659 -4.43629 -140.659 -5.4609C-140.659 -5.4609 -140.659 -15.1074 -140.659 -15.1074C-140.659 -15.1074 -143.21 -15.1074 -143.21 -15.1074C-143.428 -15.1074 -143.602 -15.1728 -143.733 -15.3036C-143.864 -15.4344 -143.929 -15.6088 -143.929 -15.8268C-143.929 -15.8268 -143.929 -16.2846 -143.929 -16.2846C-143.929 -16.5026 -143.864 -16.677 -143.733 -16.8078C-143.602 -16.9386 -143.428 -17.004 -143.21 -17.004C-143.21 -17.004 -140.659 -17.004 -140.659 -17.004C-140.659 -17.004 -140.659 -22.4976 -140.659 -22.4976C-140.659 -22.7156 -140.594 -22.89 -140.463 -23.0208C-140.332 -23.1516 -140.158 -23.217 -139.94 -23.217C-139.94 -23.217 -139.384 -23.217 -139.384 -23.217C-139.166 -23.217 -138.991 -23.1516 -138.861 -23.0208C-138.73 -22.89 -138.664 -22.7156 -138.664 -22.4976C-138.664 -22.4976 -138.664 -17.004 -138.664 -17.004C-138.664 -17.004 -134.61 -17.004 -134.61 -17.004C-134.392 -17.004 -134.217 -16.9386 -134.086 -16.8078C-133.956 -16.677 -133.89 -16.5026 -133.89 -16.2846C-133.89 -16.2846 -133.89 -15.8268 -133.89 -15.8268C-133.89 -15.6088 -133.956 -15.4344 -134.086 -15.3036C-134.217 -15.1728 -134.392 -15.1074 -134.61 -15.1074C-134.61 -15.1074 -138.664 -15.1074 -138.664 -15.1074C-138.664 -15.1074 -138.664 -5.5917 -138.664 -5.5917C-138.664 -4.43629 -138.474 -3.5316 -138.092 -2.8776C-137.711 -2.2236 -137.029 -1.8966 -136.048 -1.8966C-136.048 -1.8966 -134.283 -1.8966 -134.283 -1.8966C-134.065 -1.8966 -133.89 -1.8312 -133.759 -1.7004C-133.629 -1.5696 -133.563 -1.3952 -133.563 -1.1772C-133.563 -1.1772 -133.563 -0.7194 -133.563 -0.7194C-133.563 -0.501399 -133.629 -0.327001 -133.759 -0.1962C-133.89 -0.0653993 -134.065 0 -134.283 0C-134.283 0 -136.212 0 -136.212 0ZM-129.476 0C-129.694 0 -129.868 -0.0653993 -129.999 -0.1962C-130.13 -0.327001 -130.195 -0.501399 -130.195 -0.7194C-130.195 -0.7194 -130.195 -16.2519 -130.195 -16.2519C-130.195 -16.4699 -130.13 -16.6497 -129.999 -16.7915C-129.868 -16.9332 -129.694 -17.004 -129.476 -17.004C-129.476 -17.004 -128.952 -17.004 -128.952 -17.004C-128.734 -17.004 -128.555 -16.9332 -128.413 -16.7915C-128.271 -16.6497 -128.2 -16.4699 -128.2 -16.2519C-128.2 -16.2519 -128.2 -14.7477 -128.2 -14.7477C-127.808 -15.5107 -127.241 -16.0775 -126.5 -16.4481C-125.759 -16.8187 -124.843 -17.004 -123.753 -17.004C-123.753 -17.004 -122.543 -17.004 -122.543 -17.004C-122.325 -17.004 -122.151 -16.9386 -122.02 -16.8078C-121.889 -16.677 -121.824 -16.5026 -121.824 -16.2846C-121.824 -16.2846 -121.824 -15.8268 -121.824 -15.8268C-121.824 -15.6088 -121.889 -15.4344 -122.02 -15.3036C-122.151 -15.1728 -122.325 -15.1074 -122.543 -15.1074C-122.543 -15.1074 -123.949 -15.1074 -123.949 -15.1074C-125.257 -15.1074 -126.293 -14.7259 -127.056 -13.9629C-127.819 -13.1999 -128.2 -12.1644 -128.2 -10.8564C-128.2 -10.8564 -128.2 -0.7194 -128.2 -0.7194C-128.2 -0.501399 -128.271 -0.327001 -128.413 -0.1962C-128.555 -0.0653993 -128.734 0 -128.952 0C-128.952 0 -129.476 0 -129.476 0ZM-112.504 0.327C-114.619 0.327 -116.298 -0.365143 -117.54 -1.74945C-118.783 -3.13376 -119.491 -4.94859 -119.666 -7.194C-119.687 -7.521 -119.698 -7.957 -119.698 -8.502C-119.698 -9.047 -119.687 -9.483 -119.666 -9.81C-119.557 -11.2924 -119.208 -12.6004 -118.619 -13.734C-118.031 -14.8676 -117.219 -15.7505 -116.183 -16.3827C-115.148 -17.0149 -113.921 -17.331 -112.504 -17.331C-110.978 -17.331 -109.681 -16.9931 -108.613 -16.3173C-107.545 -15.6415 -106.722 -14.6714 -106.144 -13.407C-105.567 -12.1426 -105.278 -10.6384 -105.278 -8.8944C-105.278 -8.8944 -105.278 -8.4039 -105.278 -8.4039C-105.278 -8.1859 -105.349 -8.0115 -105.49 -7.8807C-105.632 -7.7499 -105.812 -7.6845 -106.03 -7.6845C-106.03 -7.6845 -117.671 -7.6845 -117.671 -7.6845C-117.671 -7.6845 -117.671 -7.6409 -117.671 -7.5537C-117.671 -7.4665 -117.671 -7.4011 -117.671 -7.3575C-117.627 -6.3765 -117.398 -5.44455 -116.984 -4.56165C-116.57 -3.67875 -115.981 -2.95935 -115.218 -2.40345C-114.455 -1.84755 -113.551 -1.5696 -112.504 -1.5696C-111.567 -1.5696 -110.788 -1.7113 -110.166 -1.9947C-109.545 -2.2781 -109.049 -2.58875 -108.678 -2.92665C-108.308 -3.26455 -108.068 -3.5207 -107.959 -3.6951C-107.763 -3.9785 -107.61 -4.14745 -107.501 -4.20195C-107.392 -4.25645 -107.218 -4.2837 -106.978 -4.2837C-106.978 -4.2837 -106.455 -4.2837 -106.455 -4.2837C-106.259 -4.2837 -106.09 -4.22375 -105.948 -4.10385C-105.806 -3.98395 -105.746 -3.8259 -105.768 -3.6297C-105.79 -3.3245 -105.959 -2.94845 -106.275 -2.50155C-106.591 -2.05465 -107.038 -1.6132 -107.616 -1.1772C-108.193 -0.741198 -108.896 -0.381501 -109.725 -0.0981C-110.553 0.185301 -111.48 0.327 -112.504 0.327ZM-117.671 -9.5157C-117.671 -9.5157 -107.272 -9.5157 -107.272 -9.5157C-107.272 -9.5157 -107.272 -9.6465 -107.272 -9.6465C-107.272 -10.7365 -107.479 -11.7175 -107.894 -12.5895C-108.308 -13.4615 -108.907 -14.1536 -109.692 -14.666C-110.477 -15.1783 -111.414 -15.4344 -112.504 -15.4344C-113.594 -15.4344 -114.526 -15.1783 -115.3 -14.666C-116.074 -14.1536 -116.663 -13.4615 -117.066 -12.5895C-117.469 -11.7175 -117.671 -10.7365 -117.671 -9.6465C-117.671 -9.6465 -117.671 -9.5157 -117.671 -9.5157ZM-95.5658 0.327C-96.6994 0.327 -97.6749 0.174402 -98.4924 -0.1308C-99.3099 -0.436002 -99.9803 -0.801148 -100.503 -1.22625C-101.027 -1.65135 -101.414 -2.071 -101.664 -2.4852C-101.915 -2.8994 -102.051 -3.2155 -102.073 -3.4335C-102.095 -3.6733 -102.019 -3.85315 -101.844 -3.97305C-101.67 -4.09295 -101.506 -4.1529 -101.354 -4.1529C-101.354 -4.1529 -100.863 -4.1529 -100.863 -4.1529C-100.732 -4.1529 -100.618 -4.1311 -100.52 -4.0875C-100.422 -4.0439 -100.296 -3.924 -100.144 -3.7278C-99.8604 -3.3572 -99.5334 -3.00295 -99.1628 -2.66505C-98.7922 -2.32715 -98.318 -2.0601 -97.7403 -1.8639C-97.1626 -1.6677 -96.4378 -1.5696 -95.5658 -1.5696C-94.2578 -1.5696 -93.1787 -1.8203 -92.3285 -2.3217C-91.4783 -2.8231 -91.0532 -3.56429 -91.0532 -4.5453C-91.0532 -5.1557 -91.2221 -5.6462 -91.56 -6.0168C-91.8979 -6.3874 -92.4702 -6.7144 -93.2768 -6.9978C-94.0834 -7.2812 -95.1734 -7.5755 -96.5468 -7.8807C-97.9202 -8.2077 -98.972 -8.6001 -99.7023 -9.0579C-100.433 -9.5157 -100.929 -10.0443 -101.19 -10.6439C-101.452 -11.2434 -101.583 -11.8919 -101.583 -12.5895C-101.583 -13.3525 -101.365 -14.0991 -100.929 -14.8295C-100.493 -15.5598 -99.844 -16.1592 -98.9829 -16.628C-98.1218 -17.0967 -97.0373 -17.331 -95.7293 -17.331C-94.6611 -17.331 -93.7509 -17.1893 -92.9988 -16.9059C-92.2467 -16.6225 -91.6309 -16.2792 -91.1513 -15.8759C-90.6717 -15.4725 -90.3174 -15.0747 -90.0885 -14.6823C-89.8596 -14.2899 -89.7343 -13.9738 -89.7125 -13.734C-89.6907 -13.516 -89.7561 -13.3416 -89.9087 -13.2108C-90.0613 -13.08 -90.2357 -13.0146 -90.4319 -13.0146C-90.4319 -13.0146 -90.9224 -13.0146 -90.9224 -13.0146C-91.0968 -13.0146 -91.2385 -13.0528 -91.3475 -13.1291C-91.4565 -13.2054 -91.5546 -13.3089 -91.6418 -13.4397C-91.8598 -13.7885 -92.1214 -14.1155 -92.4266 -14.4207C-92.7318 -14.7259 -93.1405 -14.9711 -93.6528 -15.1565C-94.1651 -15.3418 -94.8573 -15.4344 -95.7293 -15.4344C-97.0373 -15.4344 -98.0074 -15.1674 -98.6396 -14.6333C-99.2718 -14.0991 -99.5879 -13.4179 -99.5879 -12.5895C-99.5879 -12.1099 -99.4571 -11.6903 -99.1955 -11.3306C-98.9339 -10.9708 -98.4434 -10.6439 -97.724 -10.3496C-97.0046 -10.0552 -95.9582 -9.7446 -94.5848 -9.4176C-93.1896 -9.1124 -92.0887 -8.73635 -91.2821 -8.28945C-90.4755 -7.84255 -89.9032 -7.3139 -89.5653 -6.7035C-89.2274 -6.0931 -89.0585 -5.3737 -89.0585 -4.5453C-89.0585 -3.6733 -89.3037 -2.8667 -89.7942 -2.1255C-90.2847 -1.3843 -91.015 -0.790252 -91.9851 -0.34335C-92.9552 0.103552 -94.1488 0.327 -95.5658 0.327ZM-79.4774 0.327C-80.611 0.327 -81.5865 0.174402 -82.404 -0.1308C-83.2215 -0.436002 -83.8919 -0.801148 -84.4151 -1.22625C-84.9383 -1.65135 -85.3252 -2.071 -85.5759 -2.4852C-85.8266 -2.8994 -85.9629 -3.2155 -85.9847 -3.4335C-86.0065 -3.6733 -85.9302 -3.85315 -85.7558 -3.97305C-85.5814 -4.09295 -85.4179 -4.1529 -85.2653 -4.1529C-85.2653 -4.1529 -84.7748 -4.1529 -84.7748 -4.1529C-84.644 -4.1529 -84.5295 -4.1311 -84.4314 -4.0875C-84.3333 -4.0439 -84.208 -3.924 -84.0554 -3.7278C-83.772 -3.3572 -83.445 -3.00295 -83.0744 -2.66505C-82.7038 -2.32715 -82.2296 -2.0601 -81.6519 -1.8639C-81.0742 -1.6677 -80.3494 -1.5696 -79.4774 -1.5696C-78.1693 -1.5696 -77.0903 -1.8203 -76.2401 -2.3217C-75.3899 -2.8231 -74.9648 -3.56429 -74.9648 -4.5453C-74.9648 -5.1557 -75.1337 -5.6462 -75.4716 -6.0168C-75.8095 -6.3874 -76.3818 -6.7144 -77.1884 -6.9978C-77.995 -7.2812 -79.085 -7.5755 -80.4584 -7.8807C-81.8318 -8.2077 -82.8836 -8.6001 -83.6139 -9.0579C-84.3442 -9.5157 -84.8402 -10.0443 -85.1018 -10.6439C-85.3634 -11.2434 -85.4942 -11.8919 -85.4942 -12.5895C-85.4942 -13.3525 -85.2762 -14.0991 -84.8402 -14.8295C-84.4042 -15.5598 -83.7556 -16.1592 -82.8945 -16.628C-82.0334 -17.0967 -80.9489 -17.331 -79.6409 -17.331C-78.5727 -17.331 -77.6625 -17.1893 -76.9104 -16.9059C-76.1583 -16.6225 -75.5425 -16.2792 -75.0629 -15.8759C-74.5833 -15.4725 -74.229 -15.0747 -74.0001 -14.6823C-73.7712 -14.2899 -73.6459 -13.9738 -73.6241 -13.734C-73.6023 -13.516 -73.6677 -13.3416 -73.8203 -13.2108C-73.9729 -13.08 -74.1473 -13.0146 -74.3435 -13.0146C-74.3435 -13.0146 -74.834 -13.0146 -74.834 -13.0146C-75.0084 -13.0146 -75.1501 -13.0528 -75.2591 -13.1291C-75.3681 -13.2054 -75.4662 -13.3089 -75.5534 -13.4397C-75.7714 -13.7885 -76.033 -14.1155 -76.3382 -14.4207C-76.6434 -14.7259 -77.0521 -14.9711 -77.5644 -15.1565C-78.0767 -15.3418 -78.7689 -15.4344 -79.6409 -15.4344C-80.9489 -15.4344 -81.919 -15.1674 -82.5512 -14.6333C-83.1834 -14.0991 -83.4995 -13.4179 -83.4995 -12.5895C-83.4995 -12.1099 -83.3687 -11.6903 -83.1071 -11.3306C-82.8455 -10.9708 -82.355 -10.6439 -81.6356 -10.3496C-80.9162 -10.0552 -79.8698 -9.7446 -78.4964 -9.4176C-77.1012 -9.1124 -76.0003 -8.73635 -75.1937 -8.28945C-74.3871 -7.84255 -73.8148 -7.3139 -73.4769 -6.7035C-73.139 -6.0931 -72.9701 -5.3737 -72.9701 -4.5453C-72.9701 -3.6733 -73.2153 -2.8667 -73.7058 -2.1255C-74.1963 -1.3843 -74.9266 -0.790252 -75.8967 -0.34335C-76.8668 0.103552 -78.0604 0.327 -79.4774 0.327ZM-68.294 -8.8617C-68.512 -8.8617 -68.6864 -8.9271 -68.8172 -9.0579C-68.948 -9.1887 -69.0134 -9.3631 -69.0134 -9.5811C-69.0134 -9.5811 -69.0134 -10.0389 -69.0134 -10.0389C-69.0134 -10.2569 -68.948 -10.4313 -68.8172 -10.5621C-68.6864 -10.6929 -68.512 -10.7583 -68.294 -10.7583C-68.294 -10.7583 -58.6475 -10.7583 -58.6475 -10.7583C-58.4295 -10.7583 -58.2551 -10.6929 -58.1243 -10.5621C-57.9935 -10.4313 -57.9281 -10.2569 -57.9281 -10.0389C-57.9281 -10.0389 -57.9281 -9.5811 -57.9281 -9.5811C-57.9281 -9.3631 -57.9935 -9.1887 -58.1243 -9.0579C-58.2551 -8.9271 -58.4295 -8.8617 -58.6475 -8.8617C-58.6475 -8.8617 -68.294 -8.8617 -68.294 -8.8617ZM-50.5379 0C-50.7559 0 -50.9303 -0.0653993 -51.0611 -0.1962C-51.1919 -0.327001 -51.2573 -0.501399 -51.2573 -0.7194C-51.2573 -0.7194 -51.2573 -15.1074 -51.2573 -15.1074C-51.2573 -15.1074 -54.1676 -15.1074 -54.1676 -15.1074C-54.3856 -15.1074 -54.56 -15.1728 -54.6908 -15.3036C-54.8216 -15.4344 -54.887 -15.6088 -54.887 -15.8268C-54.887 -15.8268 -54.887 -16.2846 -54.887 -16.2846C-54.887 -16.5026 -54.8216 -16.677 -54.6908 -16.8078C-54.56 -16.9386 -54.3856 -17.004 -54.1676 -17.004C-54.1676 -17.004 -51.2573 -17.004 -51.2573 -17.004C-51.2573 -17.004 -51.2573 -18.8679 -51.2573 -18.8679C-51.2573 -19.8489 -51.121 -20.7427 -50.8485 -21.5493C-50.576 -22.3559 -50.0855 -22.999 -49.377 -23.4786C-48.6685 -23.9582 -47.6494 -24.198 -46.3196 -24.198C-46.3196 -24.198 -44.6192 -24.198 -44.6192 -24.198C-44.4012 -24.198 -44.2268 -24.1326 -44.096 -24.0018C-43.9652 -23.871 -43.8998 -23.6966 -43.8998 -23.4786C-43.8998 -23.4786 -43.8998 -23.0208 -43.8998 -23.0208C-43.8998 -22.8028 -43.9652 -22.6284 -44.096 -22.4976C-44.2268 -22.3668 -44.4012 -22.3014 -44.6192 -22.3014C-44.6192 -22.3014 -46.3196 -22.3014 -46.3196 -22.3014C-47.475 -22.3014 -48.2543 -21.9908 -48.6576 -21.3695C-49.0609 -20.7481 -49.2626 -19.8598 -49.2626 -18.7044C-49.2626 -18.7044 -49.2626 -17.004 -49.2626 -17.004C-49.2626 -17.004 -44.9462 -17.004 -44.9462 -17.004C-44.7282 -17.004 -44.5538 -16.9386 -44.423 -16.8078C-44.2922 -16.677 -44.2268 -16.5026 -44.2268 -16.2846C-44.2268 -16.2846 -44.2268 -15.8268 -44.2268 -15.8268C-44.2268 -15.6088 -44.2922 -15.4344 -44.423 -15.3036C-44.5538 -15.1728 -44.7282 -15.1074 -44.9462 -15.1074C-44.9462 -15.1074 -49.2626 -15.1074 -49.2626 -15.1074C-49.2626 -15.1074 -49.2626 -0.7194 -49.2626 -0.7194C-49.2626 -0.501399 -49.328 -0.327001 -49.4588 -0.1962C-49.5896 -0.0653993 -49.764 0 -49.982 0C-49.982 0 -50.5379 0 -50.5379 0ZM-40.3682 0C-40.5862 0 -40.7606 -0.0653993 -40.8914 -0.1962C-41.0222 -0.327001 -41.0876 -0.501399 -41.0876 -0.7194C-41.0876 -0.7194 -41.0876 -16.2519 -41.0876 -16.2519C-41.0876 -16.4699 -41.0222 -16.6497 -40.8914 -16.7915C-40.7606 -16.9332 -40.5862 -17.004 -40.3682 -17.004C-40.3682 -17.004 -39.845 -17.004 -39.845 -17.004C-39.627 -17.004 -39.4471 -16.9332 -39.3054 -16.7915C-39.1637 -16.6497 -39.0929 -16.4699 -39.0929 -16.2519C-39.0929 -16.2519 -39.0929 -14.7477 -39.0929 -14.7477C-38.7005 -15.5107 -38.1337 -16.0775 -37.3925 -16.4481C-36.6513 -16.8187 -35.7357 -17.004 -34.6457 -17.004C-34.6457 -17.004 -33.4358 -17.004 -33.4358 -17.004C-33.2178 -17.004 -33.0434 -16.9386 -32.9126 -16.8078C-32.7818 -16.677 -32.7164 -16.5026 -32.7164 -16.2846C-32.7164 -16.2846 -32.7164 -15.8268 -32.7164 -15.8268C-32.7164 -15.6088 -32.7818 -15.4344 -32.9126 -15.3036C-33.0434 -15.1728 -33.2178 -15.1074 -33.4358 -15.1074C-33.4358 -15.1074 -34.8419 -15.1074 -34.8419 -15.1074C-36.1499 -15.1074 -37.1854 -14.7259 -37.9484 -13.9629C-38.7114 -13.1999 -39.0929 -12.1644 -39.0929 -10.8564C-39.0929 -10.8564 -39.0929 -0.7194 -39.0929 -0.7194C-39.0929 -0.501399 -39.1637 -0.327001 -39.3054 -0.1962C-39.4471 -0.0653993 -39.627 0 -39.845 0C-39.845 0 -40.3682 0 -40.3682 0ZM-23.3969 0.327C-25.5115 0.327 -27.1901 -0.365143 -28.4327 -1.74945C-29.6753 -3.13376 -30.3838 -4.94859 -30.5582 -7.194C-30.58 -7.521 -30.5909 -7.957 -30.5909 -8.502C-30.5909 -9.047 -30.58 -9.483 -30.5582 -9.81C-30.4492 -11.2924 -30.1004 -12.6004 -29.5118 -13.734C-28.9232 -14.8676 -28.1111 -15.7505 -27.0756 -16.3827C-26.0401 -17.0149 -24.8139 -17.331 -23.3969 -17.331C-21.8709 -17.331 -20.5738 -16.9931 -19.5056 -16.3173C-18.4374 -15.6415 -17.6144 -14.6714 -17.0367 -13.407C-16.459 -12.1426 -16.1702 -10.6384 -16.1702 -8.8944C-16.1702 -8.8944 -16.1702 -8.4039 -16.1702 -8.4039C-16.1702 -8.1859 -16.241 -8.0115 -16.3827 -7.8807C-16.5244 -7.7499 -16.7043 -7.6845 -16.9223 -7.6845C-16.9223 -7.6845 -28.5635 -7.6845 -28.5635 -7.6845C-28.5635 -7.6845 -28.5635 -7.6409 -28.5635 -7.5537C-28.5635 -7.4665 -28.5635 -7.4011 -28.5635 -7.3575C-28.5199 -6.3765 -28.291 -5.44455 -27.8768 -4.56165C-27.4626 -3.67875 -26.874 -2.95935 -26.111 -2.40345C-25.348 -1.84755 -24.4433 -1.5696 -23.3969 -1.5696C-22.4595 -1.5696 -21.6801 -1.7113 -21.0588 -1.9947C-20.4375 -2.2781 -19.9416 -2.58875 -19.571 -2.92665C-19.2004 -3.26455 -18.9606 -3.5207 -18.8516 -3.6951C-18.6554 -3.9785 -18.5028 -4.14745 -18.3938 -4.20195C-18.2848 -4.25645 -18.1104 -4.2837 -17.8706 -4.2837C-17.8706 -4.2837 -17.3474 -4.2837 -17.3474 -4.2837C-17.1512 -4.2837 -16.9822 -4.22375 -16.8405 -4.10385C-16.6988 -3.98395 -16.6389 -3.8259 -16.6607 -3.6297C-16.6825 -3.3245 -16.8514 -2.94845 -17.1675 -2.50155C-17.4836 -2.05465 -17.9305 -1.6132 -18.5082 -1.1772C-19.0859 -0.741198 -19.789 -0.381501 -20.6174 -0.0981C-21.4458 0.185301 -22.3723 0.327 -23.3969 0.327ZM-28.5635 -9.5157C-28.5635 -9.5157 -18.1649 -9.5157 -18.1649 -9.5157C-18.1649 -9.5157 -18.1649 -9.6465 -18.1649 -9.6465C-18.1649 -10.7365 -18.372 -11.7175 -18.7862 -12.5895C-19.2004 -13.4615 -19.7999 -14.1536 -20.5847 -14.666C-21.3695 -15.1783 -22.3069 -15.4344 -23.3969 -15.4344C-24.4869 -15.4344 -25.4188 -15.1783 -26.1927 -14.666C-26.9666 -14.1536 -27.5552 -13.4615 -27.9585 -12.5895C-28.3618 -11.7175 -28.5635 -10.7365 -28.5635 -9.6465C-28.5635 -9.6465 -28.5635 -9.5157 -28.5635 -9.5157ZM-5.54266 0.327C-7.65727 0.327 -9.33585 -0.365143 -10.5785 -1.74945C-11.8211 -3.13376 -12.5296 -4.94859 -12.704 -7.194C-12.7258 -7.521 -12.7367 -7.957 -12.7367 -8.502C-12.7367 -9.047 -12.7258 -9.483 -12.704 -9.81C-12.595 -11.2924 -12.2462 -12.6004 -11.6576 -13.734C-11.069 -14.8676 -10.2569 -15.7505 -9.22141 -16.3827C-8.1859 -17.0149 -6.95967 -17.331 -5.54266 -17.331C-4.01665 -17.331 -2.71956 -16.9931 -1.65136 -16.3173C-0.583153 -15.6415 0.239789 -14.6714 0.817492 -13.407C1.39519 -12.1426 1.68404 -10.6384 1.68404 -8.8944C1.68404 -8.8944 1.68404 -8.4039 1.68404 -8.4039C1.68404 -8.1859 1.61319 -8.0115 1.47149 -7.8807C1.32979 -7.7499 1.14994 -7.6845 0.931942 -7.6845C0.931942 -7.6845 -10.7093 -7.6845 -10.7093 -7.6845C-10.7093 -7.6845 -10.7093 -7.6409 -10.7093 -7.5537C-10.7093 -7.4665 -10.7093 -7.4011 -10.7093 -7.3575C-10.6657 -6.3765 -10.4368 -5.44455 -10.0226 -4.56165C-9.60836 -3.67875 -9.01976 -2.95935 -8.25676 -2.40345C-7.49375 -1.84755 -6.58906 -1.5696 -5.54266 -1.5696C-4.60525 -1.5696 -3.82591 -1.7113 -3.20461 -1.9947C-2.5833 -2.2781 -2.08736 -2.58875 -1.71676 -2.92665C-1.34616 -3.26455 -1.10636 -3.5207 -0.997358 -3.6951C-0.801157 -3.9785 -0.648559 -4.14745 -0.539558 -4.20195C-0.430557 -4.25645 -0.256159 -4.2837 -0.0163584 -4.2837C-0.0163584 -4.2837 0.506842 -4.2837 0.506842 -4.2837C0.703043 -4.2837 0.871991 -4.22375 1.01369 -4.10385C1.15539 -3.98395 1.21534 -3.8259 1.19354 -3.6297C1.17174 -3.3245 1.00279 -2.94845 0.686692 -2.50155C0.37059 -2.05465 -0.0763053 -1.6132 -0.654008 -1.1772C-1.23171 -0.741198 -1.93475 -0.381501 -2.76316 -0.0981C-3.59156 0.185301 -4.51805 0.327 -5.54266 0.327ZM-10.7093 -9.5157C-10.7093 -9.5157 -0.310658 -9.5157 -0.310658 -9.5157C-0.310658 -9.5157 -0.310658 -9.6465 -0.310658 -9.6465C-0.310658 -10.7365 -0.517756 -11.7175 -0.931958 -12.5895C-1.34616 -13.4615 -1.94565 -14.1536 -2.73046 -14.666C-3.51526 -15.1783 -4.45265 -15.4344 -5.54266 -15.4344C-6.63266 -15.4344 -7.5646 -15.1783 -8.33851 -14.666C-9.11241 -14.1536 -9.70101 -13.4615 -10.1043 -12.5895C-10.5076 -11.7175 -10.7093 -10.7365 -10.7093 -9.6465C-10.7093 -9.6465 -10.7093 -9.5157 -10.7093 -9.5157ZM21.7291 0.327C19.9633 0.327 18.4646 0.0436029 17.2329 -0.5232C16.0012 -1.09 15.0583 -1.8203 14.4043 -2.7141C13.7503 -3.6079 13.4015 -4.5562 13.3579 -5.559C13.3579 -5.7334 13.4233 -5.886 13.5541 -6.0168C13.6849 -6.1476 13.8484 -6.213 14.0446 -6.213C14.0446 -6.213 14.6986 -6.213 14.6986 -6.213C14.9166 -6.213 15.0856 -6.1476 15.2055 -6.0168C15.3254 -5.886 15.3962 -5.7334 15.418 -5.559C15.5052 -4.9486 15.7777 -4.34365 16.2355 -3.74415C16.6933 -3.14465 17.3691 -2.64325 18.2629 -2.23995C19.1567 -1.83665 20.3121 -1.635 21.7291 -1.635C23.8656 -1.635 25.4242 -2.02195 26.4052 -2.79585C27.3862 -3.56975 27.8767 -4.61069 27.8767 -5.9187C27.8767 -6.7907 27.6206 -7.49375 27.1083 -8.02785C26.596 -8.56195 25.8166 -9.04155 24.7702 -9.46665C23.7238 -9.89175 22.3832 -10.3659 20.7481 -10.8891C19.2003 -11.3905 17.925 -11.9082 16.9222 -12.4424C15.9194 -12.9765 15.1837 -13.625 14.715 -14.388C14.2463 -15.151 14.0119 -16.132 14.0119 -17.331C14.0119 -18.4428 14.3062 -19.4401 14.8948 -20.3231C15.4834 -21.206 16.3391 -21.909 17.4618 -22.4322C18.5845 -22.9554 19.9524 -23.217 21.5656 -23.217C22.8518 -23.217 23.9745 -23.0426 24.9337 -22.6938C25.8929 -22.345 26.6886 -21.8818 27.3208 -21.3041C27.953 -20.7263 28.4326 -20.1051 28.7596 -19.4402C29.0866 -18.7752 29.261 -18.1267 29.2828 -17.4945C29.2828 -17.3419 29.2283 -17.1948 29.1193 -17.0531C29.0103 -16.9114 28.8359 -16.8405 28.5961 -16.8405C28.5961 -16.8405 27.9421 -16.8405 27.9421 -16.8405C27.8331 -16.8405 27.6969 -16.8841 27.5334 -16.9713C27.3699 -17.0585 27.2663 -17.2329 27.2227 -17.4945C27.0919 -18.5845 26.5197 -19.4837 25.506 -20.1923C24.4923 -20.9008 23.1789 -21.255 21.5656 -21.255C19.9524 -21.255 18.6335 -20.9389 17.6089 -20.3067C16.5843 -19.6745 16.072 -18.6826 16.072 -17.331C16.072 -16.459 16.3009 -15.7451 16.7587 -15.1892C17.2165 -14.6332 17.9359 -14.1428 18.9169 -13.7177C19.8979 -13.2925 21.1623 -12.8293 22.7101 -12.3279C24.3451 -11.8047 25.6967 -11.2815 26.7649 -10.7583C27.8331 -10.2351 28.6288 -9.59745 29.152 -8.84535C29.6752 -8.09325 29.9368 -7.11771 29.9368 -5.9187C29.9368 -4.58889 29.6044 -3.46075 28.9395 -2.53425C28.2746 -1.60775 27.3317 -0.899252 26.1109 -0.40875C24.8901 0.0817524 23.4296 0.327 21.7291 0.327ZM39.943 0C38.8094 0 37.9156 -0.239798 37.2616 -0.7194C36.6076 -1.199 36.1498 -1.853 35.8882 -2.6814C35.6266 -3.5098 35.4958 -4.43629 35.4958 -5.4609C35.4958 -5.4609 35.4958 -15.1074 35.4958 -15.1074C35.4958 -15.1074 32.9452 -15.1074 32.9452 -15.1074C32.7272 -15.1074 32.5528 -15.1728 32.422 -15.3036C32.2912 -15.4344 32.2258 -15.6088 32.2258 -15.8268C32.2258 -15.8268 32.2258 -16.2846 32.2258 -16.2846C32.2258 -16.5026 32.2912 -16.677 32.422 -16.8078C32.5528 -16.9386 32.7272 -17.004 32.9452 -17.004C32.9452 -17.004 35.4958 -17.004 35.4958 -17.004C35.4958 -17.004 35.4958 -22.4976 35.4958 -22.4976C35.4958 -22.7156 35.5612 -22.89 35.692 -23.0208C35.8228 -23.1516 35.9972 -23.217 36.2152 -23.217C36.2152 -23.217 36.7711 -23.217 36.7711 -23.217C36.9891 -23.217 37.1635 -23.1516 37.2943 -23.0208C37.4251 -22.89 37.4905 -22.7156 37.4905 -22.4976C37.4905 -22.4976 37.4905 -17.004 37.4905 -17.004C37.4905 -17.004 41.5453 -17.004 41.5453 -17.004C41.7633 -17.004 41.9377 -16.9386 42.0685 -16.8078C42.1993 -16.677 42.2647 -16.5026 42.2647 -16.2846C42.2647 -16.2846 42.2647 -15.8268 42.2647 -15.8268C42.2647 -15.6088 42.1993 -15.4344 42.0685 -15.3036C41.9377 -15.1728 41.7633 -15.1074 41.5453 -15.1074C41.5453 -15.1074 37.4905 -15.1074 37.4905 -15.1074C37.4905 -15.1074 37.4905 -5.5917 37.4905 -5.5917C37.4905 -4.43629 37.6813 -3.5316 38.0628 -2.8776C38.4443 -2.2236 39.1255 -1.8966 40.1065 -1.8966C40.1065 -1.8966 41.8723 -1.8966 41.8723 -1.8966C42.0903 -1.8966 42.2647 -1.8312 42.3955 -1.7004C42.5263 -1.5696 42.5917 -1.3952 42.5917 -1.1772C42.5917 -1.1772 42.5917 -0.7194 42.5917 -0.7194C42.5917 -0.501399 42.5263 -0.327001 42.3955 -0.1962C42.2647 -0.0653993 42.0903 0 41.8723 0C41.8723 0 39.943 0 39.943 0ZM46.6792 0C46.4612 0 46.2868 -0.0653993 46.156 -0.1962C46.0252 -0.327001 45.9598 -0.501399 45.9598 -0.7194C45.9598 -0.7194 45.9598 -16.2519 45.9598 -16.2519C45.9598 -16.4699 46.0252 -16.6497 46.156 -16.7915C46.2868 -16.9332 46.4612 -17.004 46.6792 -17.004C46.6792 -17.004 47.2024 -17.004 47.2024 -17.004C47.4204 -17.004 47.6003 -16.9332 47.742 -16.7915C47.8837 -16.6497 47.9545 -16.4699 47.9545 -16.2519C47.9545 -16.2519 47.9545 -14.7477 47.9545 -14.7477C48.3469 -15.5107 48.9137 -16.0775 49.6549 -16.4481C50.3961 -16.8187 51.3117 -17.004 52.4017 -17.004C52.4017 -17.004 53.6116 -17.004 53.6116 -17.004C53.8296 -17.004 54.004 -16.9386 54.1348 -16.8078C54.2656 -16.677 54.331 -16.5026 54.331 -16.2846C54.331 -16.2846 54.331 -15.8268 54.331 -15.8268C54.331 -15.6088 54.2656 -15.4344 54.1348 -15.3036C54.004 -15.1728 53.8296 -15.1074 53.6116 -15.1074C53.6116 -15.1074 52.2055 -15.1074 52.2055 -15.1074C50.8975 -15.1074 49.862 -14.7259 49.099 -13.9629C48.336 -13.1999 47.9545 -12.1644 47.9545 -10.8564C47.9545 -10.8564 47.9545 -0.7194 47.9545 -0.7194C47.9545 -0.501399 47.8837 -0.327001 47.742 -0.1962C47.6003 -0.0653993 47.4204 0 47.2024 0C47.2024 0 46.6792 0 46.6792 0ZM63.6505 0.327C61.5359 0.327 59.8573 -0.365143 58.6147 -1.74945C57.3721 -3.13376 56.6636 -4.94859 56.4892 -7.194C56.4674 -7.521 56.4565 -7.957 56.4565 -8.502C56.4565 -9.047 56.4674 -9.483 56.4892 -9.81C56.5982 -11.2924 56.947 -12.6004 57.5356 -13.734C58.1242 -14.8676 58.9363 -15.7505 59.9718 -16.3827C61.0073 -17.0149 62.2335 -17.331 63.6505 -17.331C65.1766 -17.331 66.4736 -16.9931 67.5418 -16.3173C68.61 -15.6415 69.433 -14.6714 70.0107 -13.407C70.5884 -12.1426 70.8772 -10.6384 70.8772 -8.8944C70.8772 -8.8944 70.8772 -8.4039 70.8772 -8.4039C70.8772 -8.1859 70.8064 -8.0115 70.6647 -7.8807C70.523 -7.7499 70.3431 -7.6845 70.1251 -7.6845C70.1251 -7.6845 58.4839 -7.6845 58.4839 -7.6845C58.4839 -7.6845 58.4839 -7.6409 58.4839 -7.5537C58.4839 -7.4665 58.4839 -7.4011 58.4839 -7.3575C58.5275 -6.3765 58.7564 -5.44455 59.1706 -4.56165C59.5848 -3.67875 60.1734 -2.95935 60.9364 -2.40345C61.6994 -1.84755 62.6041 -1.5696 63.6505 -1.5696C64.5879 -1.5696 65.3673 -1.7113 65.9886 -1.9947C66.6099 -2.2781 67.1058 -2.58875 67.4764 -2.92665C67.847 -3.26455 68.0868 -3.5207 68.1958 -3.6951C68.392 -3.9785 68.5446 -4.14745 68.6536 -4.20195C68.7626 -4.25645 68.937 -4.2837 69.1768 -4.2837C69.1768 -4.2837 69.7 -4.2837 69.7 -4.2837C69.8962 -4.2837 70.0652 -4.22375 70.2069 -4.10385C70.3486 -3.98395 70.4085 -3.8259 70.3867 -3.6297C70.3649 -3.3245 70.196 -2.94845 69.8799 -2.50155C69.5638 -2.05465 69.1169 -1.6132 68.5392 -1.1772C67.9615 -0.741198 67.2584 -0.381501 66.43 -0.0981C65.6016 0.185301 64.6751 0.327 63.6505 0.327ZM58.4839 -9.5157C58.4839 -9.5157 68.8825 -9.5157 68.8825 -9.5157C68.8825 -9.5157 68.8825 -9.6465 68.8825 -9.6465C68.8825 -10.7365 68.6754 -11.7175 68.2612 -12.5895C67.847 -13.4615 67.2476 -14.1536 66.4627 -14.666C65.6779 -15.1783 64.7405 -15.4344 63.6505 -15.4344C62.5605 -15.4344 61.6286 -15.1783 60.8547 -14.666C60.0808 -14.1536 59.4922 -13.4615 59.0889 -12.5895C58.6856 -11.7175 58.4839 -10.7365 58.4839 -9.6465C58.4839 -9.6465 58.4839 -9.5157 58.4839 -9.5157ZM79.7716 0.327C78.7252 0.327 77.7606 0.109002 76.8777 -0.327C75.9948 -0.763002 75.2808 -1.34615 74.7358 -2.07645C74.1908 -2.80675 73.9183 -3.6297 73.9183 -4.5453C73.9183 -6.02771 74.5178 -7.2158 75.7168 -8.1096C76.9158 -9.0034 78.4745 -9.5811 80.3929 -9.8427C80.3929 -9.8427 85.5595 -10.5621 85.5595 -10.5621C85.5595 -10.5621 85.5595 -11.7066 85.5595 -11.7066C85.5595 -12.862 85.2053 -13.7721 84.4968 -14.4371C83.7883 -15.102 82.6601 -15.4344 81.1123 -15.4344C79.9787 -15.4344 79.0631 -15.211 78.3655 -14.7641C77.6679 -14.3171 77.1883 -13.734 76.9267 -13.0146C76.8177 -12.6876 76.6106 -12.5241 76.3054 -12.5241C76.3054 -12.5241 75.7822 -12.5241 75.7822 -12.5241C75.5206 -12.5241 75.3353 -12.5949 75.2263 -12.7367C75.1173 -12.8784 75.0628 -13.0473 75.0628 -13.2435C75.0628 -13.5487 75.1773 -13.9302 75.4062 -14.388C75.6351 -14.8458 75.9893 -15.2981 76.4689 -15.7451C76.9485 -16.192 77.5698 -16.568 78.3328 -16.8732C79.0959 -17.1784 80.0223 -17.331 81.1123 -17.331C82.3986 -17.331 83.4613 -17.1566 84.3006 -16.8078C85.1399 -16.459 85.7939 -16.0067 86.2626 -15.4508C86.7313 -14.8948 87.0637 -14.279 87.2599 -13.6032C87.4561 -12.9274 87.5542 -12.2625 87.5542 -11.6085C87.5542 -11.6085 87.5542 -0.7194 87.5542 -0.7194C87.5542 -0.501399 87.4888 -0.327001 87.358 -0.1962C87.2272 -0.0653993 87.0528 0 86.8348 0C86.8348 0 86.2789 0 86.2789 0C86.0609 0 85.8865 -0.0653993 85.7557 -0.1962C85.6249 -0.327001 85.5595 -0.501399 85.5595 -0.7194C85.5595 -0.7194 85.5595 -2.2563 85.5595 -2.2563C85.2979 -1.8639 84.9273 -1.4715 84.4477 -1.0791C83.9681 -0.686698 83.3523 -0.354251 82.6002 -0.08175C81.8481 0.190751 80.9053 0.327 79.7716 0.327ZM80.0986 -1.5696C81.1014 -1.5696 82.017 -1.7876 82.8454 -2.2236C83.6739 -2.6596 84.3333 -3.32995 84.8238 -4.23465C85.3143 -5.13935 85.5595 -6.27839 85.5595 -7.6518C85.5595 -7.6518 85.5595 -8.7636 85.5595 -8.7636C85.5595 -8.7636 81.3412 -8.175 81.3412 -8.175C79.5536 -7.9352 78.202 -7.521 77.2864 -6.9324C76.3708 -6.3438 75.913 -5.6026 75.913 -4.7088C75.913 -3.9894 76.1201 -3.4008 76.5343 -2.943C76.9485 -2.4852 77.4772 -2.14185 78.1203 -1.91295C78.7634 -1.68405 79.4228 -1.5696 80.0986 -1.5696ZM93.4402 0C93.2222 0 93.0478 -0.0653993 92.917 -0.1962C92.7862 -0.327001 92.7208 -0.501399 92.7208 -0.7194C92.7208 -0.7194 92.7208 -16.2846 92.7208 -16.2846C92.7208 -16.5026 92.7862 -16.677 92.917 -16.8078C93.0478 -16.9386 93.2222 -17.004 93.4402 -17.004C93.4402 -17.004 93.9961 -17.004 93.9961 -17.004C94.2141 -17.004 94.3885 -16.9386 94.5193 -16.8078C94.6501 -16.677 94.7155 -16.5026 94.7155 -16.2846C94.7155 -16.2846 94.7155 -15.1401 94.7155 -15.1401C95.2605 -15.8377 95.9091 -16.3772 96.6612 -16.7588C97.4133 -17.1403 98.3234 -17.331 99.3916 -17.331C101.833 -17.331 103.577 -16.3064 104.624 -14.2572C105.125 -15.1946 105.861 -15.9412 106.831 -16.4971C107.801 -17.0531 108.918 -17.331 110.183 -17.331C111.338 -17.331 112.379 -17.064 113.305 -16.5299C114.232 -15.9957 114.962 -15.2055 115.496 -14.1591C116.03 -13.1127 116.298 -11.8047 116.298 -10.2351C116.298 -10.2351 116.298 -0.7194 116.298 -0.7194C116.298 -0.501399 116.232 -0.327001 116.101 -0.1962C115.971 -0.0653993 115.796 0 115.578 0C115.578 0 115.022 0 115.022 0C114.804 0 114.63 -0.0653993 114.499 -0.1962C114.368 -0.327001 114.303 -0.501399 114.303 -0.7194C114.303 -0.7194 114.303 -9.9081 114.303 -9.9081C114.303 -11.3469 114.096 -12.4641 113.682 -13.2599C113.267 -14.0556 112.722 -14.6169 112.047 -14.9439C111.371 -15.2709 110.64 -15.4344 109.856 -15.4344C109.202 -15.4344 108.537 -15.2709 107.861 -14.9439C107.185 -14.6169 106.624 -14.0556 106.177 -13.2599C105.73 -12.4641 105.507 -11.3469 105.507 -9.9081C105.507 -9.9081 105.507 -0.7194 105.507 -0.7194C105.507 -0.501399 105.441 -0.327001 105.31 -0.1962C105.18 -0.0653993 105.005 0 104.787 0C104.787 0 104.231 0 104.231 0C104.013 0 103.839 -0.0653993 103.708 -0.1962C103.577 -0.327001 103.512 -0.501399 103.512 -0.7194C103.512 -0.7194 103.512 -9.9081 103.512 -9.9081C103.512 -11.3469 103.294 -12.4641 102.858 -13.2599C102.422 -14.0556 101.866 -14.6169 101.19 -14.9439C100.514 -15.2709 99.8058 -15.4344 99.0646 -15.4344C98.4106 -15.4344 97.7457 -15.2709 97.0699 -14.9439C96.3941 -14.6169 95.8328 -14.0556 95.3859 -13.2599C94.939 -12.4641 94.7155 -11.3578 94.7155 -9.9408C94.7155 -9.9408 94.7155 -0.7194 94.7155 -0.7194C94.7155 -0.501399 94.6501 -0.327001 94.5193 -0.1962C94.3885 -0.0653993 94.2141 0 93.9961 0C93.9961 0 93.4402 0 93.4402 0ZM122.151 0C121.933 0 121.758 -0.0653993 121.628 -0.1962C121.497 -0.327001 121.431 -0.501399 121.431 -0.7194C121.431 -0.7194 121.431 -16.2846 121.431 -16.2846C121.431 -16.5026 121.497 -16.677 121.628 -16.8078C121.758 -16.9386 121.933 -17.004 122.151 -17.004C122.151 -17.004 122.707 -17.004 122.707 -17.004C122.925 -17.004 123.099 -16.9386 123.23 -16.8078C123.361 -16.677 123.426 -16.5026 123.426 -16.2846C123.426 -16.2846 123.426 -0.7194 123.426 -0.7194C123.426 -0.501399 123.361 -0.327001 123.23 -0.1962C123.099 -0.0653993 122.925 0 122.707 0C122.707 0 122.151 0 122.151 0ZM121.791 -20.5029C121.573 -20.5029 121.399 -20.5683 121.268 -20.6991C121.137 -20.8299 121.072 -21.0043 121.072 -21.2223C121.072 -21.2223 121.072 -22.4649 121.072 -22.4649C121.072 -22.6829 121.137 -22.8627 121.268 -23.0044C121.399 -23.1462 121.573 -23.217 121.791 -23.217C121.791 -23.217 123.034 -23.217 123.034 -23.217C123.252 -23.217 123.432 -23.1462 123.573 -23.0044C123.715 -22.8627 123.786 -22.6829 123.786 -22.4649C123.786 -22.4649 123.786 -21.2223 123.786 -21.2223C123.786 -21.0043 123.715 -20.8299 123.573 -20.6991C123.432 -20.5683 123.252 -20.5029 123.034 -20.5029C123.034 -20.5029 121.791 -20.5029 121.791 -20.5029ZM129.443 0C129.225 0 129.051 -0.0653993 128.92 -0.1962C128.789 -0.327001 128.724 -0.501399 128.724 -0.7194C128.724 -0.7194 128.724 -16.2846 128.724 -16.2846C128.724 -16.5026 128.789 -16.677 128.92 -16.8078C129.051 -16.9386 129.225 -17.004 129.443 -17.004C129.443 -17.004 129.999 -17.004 129.999 -17.004C130.217 -17.004 130.391 -16.9386 130.522 -16.8078C130.653 -16.677 130.718 -16.5026 130.718 -16.2846C130.718 -16.2846 130.718 -14.7477 130.718 -14.7477C131.307 -15.5107 132.021 -16.132 132.86 -16.6116C133.699 -17.0912 134.817 -17.331 136.212 -17.331C137.694 -17.331 138.931 -17.0095 139.923 -16.3664C140.915 -15.7232 141.656 -14.8513 142.147 -13.7504C142.637 -12.6494 142.883 -11.4014 142.883 -10.0062C142.883 -10.0062 142.883 -0.7194 142.883 -0.7194C142.883 -0.501399 142.817 -0.327001 142.686 -0.1962C142.556 -0.0653993 142.381 0 142.163 0C142.163 0 141.607 0 141.607 0C141.389 0 141.215 -0.0653993 141.084 -0.1962C140.953 -0.327001 140.888 -0.501399 140.888 -0.7194C140.888 -0.7194 140.888 -9.8427 140.888 -9.8427C140.888 -11.5867 140.463 -12.9546 139.613 -13.9466C138.762 -14.9385 137.52 -15.4344 135.885 -15.4344C134.337 -15.4344 133.089 -14.9385 132.141 -13.9466C131.192 -12.9546 130.718 -11.5867 130.718 -9.8427C130.718 -9.8427 130.718 -0.7194 130.718 -0.7194C130.718 -0.501399 130.653 -0.327001 130.522 -0.1962C130.391 -0.0653993 130.217 0 129.999 0C129.999 0 129.443 0 129.443 0ZM154.36 7.194C152.965 7.194 151.826 7.0087 150.943 6.6381C150.06 6.2675 149.374 5.81515 148.883 5.28105C148.393 4.74695 148.049 4.21285 147.853 3.67875C147.657 3.14465 147.548 2.7141 147.526 2.3871C147.504 2.1691 147.57 1.98925 147.722 1.84755C147.875 1.70585 148.049 1.635 148.245 1.635C148.245 1.635 148.703 1.635 148.703 1.635C148.878 1.635 149.03 1.67315 149.161 1.74945C149.292 1.82575 149.401 2.0165 149.488 2.3217C149.619 2.6705 149.831 3.07925 150.126 3.54795C150.42 4.01665 150.889 4.4254 151.532 4.7742C152.175 5.123 153.063 5.2974 154.197 5.2974C155.396 5.2974 156.399 5.1448 157.205 4.8396C158.012 4.5344 158.628 3.99485 159.053 3.22095C159.478 2.44705 159.69 1.37341 159.69 0C159.69 0 159.69 -2.2563 159.69 -2.2563C159.145 -1.5151 158.432 -0.899252 157.549 -0.40875C156.666 0.0817524 155.548 0.327 154.197 0.327C152.932 0.327 151.859 0.0981023 150.976 -0.3597C150.093 -0.817502 149.379 -1.4279 148.834 -2.1909C148.289 -2.9539 147.886 -3.8041 147.624 -4.7415C147.363 -5.6789 147.221 -6.62719 147.199 -7.5864C147.177 -8.1968 147.177 -8.8072 147.199 -9.4176C147.221 -10.3768 147.363 -11.3251 147.624 -12.2625C147.886 -13.1999 148.289 -14.0501 148.834 -14.8131C149.379 -15.5761 150.093 -16.1865 150.976 -16.6443C151.859 -17.1021 152.932 -17.331 154.197 -17.331C155.548 -17.331 156.666 -17.0803 157.549 -16.5789C158.432 -16.0775 159.145 -15.4671 159.69 -14.7477C159.69 -14.7477 159.69 -16.2519 159.69 -16.2519C159.69 -16.4699 159.756 -16.6497 159.887 -16.7915C160.017 -16.9332 160.192 -17.004 160.41 -17.004C160.41 -17.004 160.933 -17.004 160.933 -17.004C161.151 -17.004 161.331 -16.9332 161.473 -16.7915C161.614 -16.6497 161.685 -16.4699 161.685 -16.2519C161.685 -16.2519 161.685 -0.327 161.685 -0.327C161.685 1.06821 161.478 2.33259 161.064 3.4662C160.65 4.59981 159.914 5.5045 158.857 6.1803C157.799 6.8561 156.301 7.194 154.36 7.194ZM154.393 -1.5696C155.636 -1.5696 156.638 -1.8639 157.401 -2.4525C158.164 -3.0411 158.726 -3.77685 159.085 -4.65975C159.445 -5.54265 159.647 -6.431 159.69 -7.3248C159.712 -7.6518 159.723 -8.0442 159.723 -8.502C159.723 -8.9598 159.712 -9.3522 159.69 -9.6792C159.647 -10.573 159.445 -11.4613 159.085 -12.3443C158.726 -13.2272 158.164 -13.9629 157.401 -14.5515C156.638 -15.1401 155.636 -15.4344 154.393 -15.4344C153.129 -15.4344 152.12 -15.151 151.368 -14.5842C150.616 -14.0174 150.077 -13.2762 149.75 -12.3606C149.423 -11.445 149.237 -10.464 149.194 -9.4176C149.172 -8.8072 149.172 -8.1968 149.194 -7.5864C149.237 -6.53999 149.423 -5.559 149.75 -4.6434C150.077 -3.7278 150.616 -2.9866 151.368 -2.4198C152.12 -1.853 153.129 -1.5696 154.393 -1.5696Z" stroke-width="10"/>
             </g>
            </g>
           </g>
          </g>
         </g>
        </g>
        <g transform="translate(171.585 46.937)">
         <g>
          <animateTransform dur="6s" keySplines="0 0 1 1;0 0 1 1;0 0 1 1" type="translate" calcMode="spline" fill="freeze" values="828.415 0;828.415 0;1173.81 0;1173.81 0" attributeName="transform" keyTimes="0;0.396667;0.5;1"/>
          <g transform="translate(0 709.366)">
           <g transform="rotate(0)">
            <g transform="scale(1 1)">
             <g transform="skewX(0) skewY(0)">
              <g opacity="1" transform="translate(-171.585 -46.937)">
               <rect stroke="none" stroke-linejoin="round" x="0" fill="rgba(20, 20, 20, 1)" rx="0" ry="0" width="343.17" height="38.6739" stroke-linecap="round" id="RectangleBox0" y="0" stroke-width="10"/>
              </g>
             </g>
            </g>
           </g>
          </g>
         </g>
        </g>
        <g transform="translate(475 305)">
         <g transform="translate(523.913 -19.6732)">
          <g transform="rotate(0)">
           <g transform="scale(1.4 2)">
            <g transform="skewX(0) skewY(0)">
             <g opacity="1" transform="translate(-475 -305)">
              <path stroke="rgba(204, 204, 204, 1)" stroke-linejoin="miter" fill="none" fill-rule="evenodd" stroke-linecap="round" id="crta0" d="M0 0" stroke-width="18">
               <animate dur="6s" keySplines="0 0 1 1;0 0 1 1;0 0 1 1;0 0 1 1;0 0 1 1" calcMode="spline" fill="freeze" values="M475 135.764C475 135.764 475 139.786 475 139.786;M475 135.764C475 135.764 475 139.786 475 139.786;M475 146.043C475 146.043 475 360 475 360;M475 146.043C475 146.043 475 360 475 360;M475 349.223C475 349.223 475 360 475 360;M475 349.223C475 349.223 475 360 475 360" attributeName="d" keyTimes="0;0.00333333;0.05;0.26;0.343333;1"/>
              </path>
             </g>
            </g>
           </g>
          </g>
         </g>
        </g>
        <g transform="translate(475 305)">
         <g transform="translate(525 775.743)">
          <g transform="rotate(0)">
           <g transform="scale(1.4 2)">
            <g transform="skewX(0) skewY(0)">
             <g transform="translate(-475 -305)">
              <path stroke="rgba(204, 204, 204, 1)" stroke-linejoin="miter" fill="none" fill-rule="evenodd" stroke-linecap="round" id="crta1" d="M0 0" stroke-width="18">
               <animate dur="6s" keySplines="0 0 1 1;0 0 1 1;0 0 1 1;0 0 1 1;0 0 1 1" calcMode="spline" fill="freeze" values="M475 250C475 250 475 266.399 475 266.399;M475 250C475 250 475 266.399 475 266.399;M475 250C475 250 475 488.907 475 488.907;M475 250C475 250 475 488.907 475 488.907;M475 481.539C475 481.539 475 488.907 475 488.907;M475 481.539C475 481.539 475 488.907 475 488.907" attributeName="d" keyTimes="0;0.766667;0.83;0.966667;0.996667;1"/>
              </path>
              <animate dur="6s" keySplines="0 0 1 1;0 0 1 1;0 0 1 1" calcMode="spline" fill="freeze" values="0;0;1;1" attributeName="opacity" keyTimes="0;0.763333;0.766667;1"/>
             </g>
            </g>
           </g>
          </g>
         </g>
        </g>
        <g transform="translate(499.301 682.371)">
         <g transform="translate(500.699 0)">
          <g transform="rotate(0)">
           <g transform="scale(1 1)">
            <g transform="skewX(0) skewY(0)">
             <g opacity="1" transform="translate(-499.301 -682.371)">
              <g id="Group">
               <g transform="translate(475 305)">
                <g transform="translate(-96.6564 165.547)">
                 <g transform="rotate(-120)">
                  <g transform="scale(1.4 1.4)">
                   <g transform="skewX(0) skewY(0)">
                    <g transform="translate(-475 -305)">
                     <path stroke="rgba(204, 204, 204, 1)" stroke-linejoin="miter" fill="rgba(204, 204, 204, 1)" fill-rule="evenodd" stroke-linecap="round" id="crta6" d="M0 0" stroke-width="18">
                      <animate dur="6s" keySplines="0 0 1 1;0 0 1 1;0 0 1 1" calcMode="spline" fill="freeze" values="M474.92 356.455C474.92 356.455 475 360 475 360;M474.92 356.455C474.92 356.455 475 360 475 360;M475.493 209.987C475.493 209.987 475 360 475 360;M475.493 209.987C475.493 209.987 475 360 475 360" attributeName="d" keyTimes="0;0.15;0.243333;1"/>
                     </path>
                     <animate dur="6s" keySplines="0 0 1 1;0 0 1 1;0 0 1 1" calcMode="spline" fill="freeze" values="0;0;1;1" attributeName="opacity" keyTimes="0;0.146667;0.15;1"/>
                    </g>
                   </g>
                  </g>
                 </g>
                </g>
               </g>
               <g transform="translate(125 295)">
                <g transform="translate(130.699 387.371)">
                 <g transform="rotate(0)">
                  <g transform="scale(1.4 1.4)">
                   <g transform="skewX(0) skewY(0)">
                    <g transform="translate(-125 -295)">
                     <path stroke="rgba(204, 204, 204, 1)" stroke-linejoin="miter" fill="rgba(204, 204, 204, 1)" fill-rule="evenodd" stroke-linecap="round" id="crta5" d="M0 0" stroke-width="18">
                      <animate dur="6s" keySplines="0 0 1 1;0 0 1 1;0 0 1 1" calcMode="spline" fill="freeze" values="M125 240C125 240 125 242.888 125 242.888;M125 240C125 240 125 242.888 125 242.888;M125 240C125 240 124.867 387.607 124.867 387.607;M125 240C125 240 124.867 387.607 124.867 387.607" attributeName="d" keyTimes="0;0.34;0.453333;1"/>
                     </path>
                     <animate dur="6s" keySplines="0 0 1 1;0 0 1 1;0 0 1 1" calcMode="spline" fill="freeze" values="0;0;1;1" attributeName="opacity" keyTimes="0;0.336667;0.34;1"/>
                    </g>
                   </g>
                  </g>
                 </g>
                </g>
               </g>
               <g transform="translate(475 305)">
                <g transform="translate(-99.4606 586.451)">
                 <g transform="rotate(120)">
                  <g transform="scale(1.4 1.4)">
                   <g transform="skewX(0) skewY(0)">
                    <g transform="translate(-475 -305)">
                     <path stroke="rgba(204, 204, 204, 1)" stroke-linejoin="miter" fill="rgba(204, 204, 204, 1)" fill-rule="evenodd" stroke-linecap="round" id="crta4" d="M0 0" stroke-width="18">
                      <animate dur="6s" keySplines="0 0 1 1;0 0 1 1;0 0 1 1" calcMode="spline" fill="freeze" values="M475.756 358.157C475.756 358.157 475 360 475 360;M475.756 358.157C475.756 358.157 475 360 475 360;M473.153 208.908C473.153 208.908 475 360 475 360;M473.153 208.908C473.153 208.908 475 360 475 360" attributeName="d" keyTimes="0;0.55;0.67;1"/>
                     </path>
                     <animate dur="6s" keySplines="0 0 1 1;0 0 1 1;0 0 1 1" calcMode="spline" fill="freeze" values="0;0;1;1" attributeName="opacity" keyTimes="0;0.546667;0.55;1"/>
                    </g>
                   </g>
                  </g>
                 </g>
                </g>
               </g>
               <g transform="translate(475 305)">
                <g transform="translate(151.061 586.555)">
                 <g transform="rotate(-120)">
                  <g transform="scale(1.4 1.4)">
                   <g transform="skewX(0) skewY(0)">
                    <g transform="translate(-475 -305)">
                     <path stroke="rgba(204, 204, 204, 1)" stroke-linejoin="bevel" fill="rgba(204, 204, 204, 1)" fill-rule="evenodd" stroke-linecap="round" id="crta3" d="M0 0" stroke-width="18">
                      <animate dur="6s" keySplines="0 0 1 1;0 0 1 1;0 0 1 1" calcMode="spline" fill="freeze" values="M474.49 357.731C474.49 357.731 475 360 475 360;M474.49 357.731C474.49 357.731 475 360 475 360;M480.304 202.92C480.304 202.92 475 360 475 360;M480.304 202.92C480.304 202.92 475 360 475 360" attributeName="d" keyTimes="0;0.55;0.67;1"/>
                     </path>
                     <animate dur="6s" keySplines="0 0 1 1;0 0 1 1;0 0 1 1" calcMode="spline" fill="freeze" values="0;0;1;1" attributeName="opacity" keyTimes="0;0.546667;0.55;1"/>
                    </g>
                   </g>
                  </g>
                 </g>
                </g>
               </g>
               <g transform="translate(475 305)">
                <g transform="translate(270.699 377.371)">
                 <g transform="rotate(0)">
                  <g transform="scale(1.4 1.4)">
                   <g transform="skewX(0) skewY(0)">
                    <g transform="translate(-475 -305)">
                     <path stroke="rgba(204, 204, 204, 1)" stroke-linejoin="miter" fill="rgba(204, 204, 204, 1)" fill-rule="evenodd" stroke-linecap="round" id="crta2" d="M0 0" stroke-width="18">
                      <animate dur="6s" keySplines="0 0 1 1;0 0 1 1;0 0 1 1" calcMode="spline" fill="freeze" values="M475 250C475 250 474.99 252.481 474.99 252.481;M475 250C475 250 474.99 252.481 474.99 252.481;M475 250C475 250 475 397.474 475 397.474;M475 250C475 250 475 397.474 475 397.474" attributeName="d" keyTimes="0;0.34;0.453333;1"/>
                     </path>
                     <animate dur="6s" keySplines="0 0 1 1;0 0 1 1;0 0 1 1" calcMode="spline" fill="freeze" values="0;0;1;1" attributeName="opacity" keyTimes="0;0.336667;0.34;1"/>
                    </g>
                   </g>
                  </g>
                 </g>
                </g>
               </g>
               <g transform="translate(475 305)">
                <g transform="translate(148.108 166.23)">
                 <g transform="rotate(120)">
                  <g transform="scale(1.4 1.4)">
                   <g transform="skewX(0) skewY(0)">
                    <g transform="translate(-475 -305)">
                     <path stroke="rgba(204, 204, 204, 1)" stroke-linejoin="miter" fill="rgba(204, 204, 204, 1)" fill-rule="evenodd" stroke-linecap="round" id="crta1" d="M0 0" stroke-width="18">
                      <animate dur="6s" keySplines="0 0 1 1;0 0 1 1;0 0 1 1" calcMode="spline" fill="freeze" values="M475.002 358.955C475.002 358.955 475 360 475 360;M475.002 358.955C475.002 358.955 475 360 475 360;M475.081 211.849C475.081 211.849 475 360 475 360;M475.081 211.849C475.081 211.849 475 360 475 360" attributeName="d" keyTimes="0;0.15;0.243333;1"/>
                     </path>
                     <animate dur="6s" keySplines="0 0 1 1;0 0 1 1;0 0 1 1" calcMode="spline" fill="freeze" values="0;0;1;1" attributeName="opacity" keyTimes="0;0.146667;0.15;1"/>
                    </g>
                   </g>
                  </g>
                 </g>
                </g>
               </g>
               <g transform="translate(125 200)">
                <g transform="translate(129.301 342.371)">
                 <g transform="rotate(0)">
                  <g>
                   <animateTransform dur="6s" keySplines="0 0 1 1;0 0 1 1;0 0.333333 1 0.666667" type="scale" calcMode="spline" fill="freeze" values="0 1;0 1;1.4 1;1.4 1" attributeName="transform" keyTimes="0;0.24;0.34;1"/>
                   <g>
                    <animateTransform dur="6s" keySplines="0 0 1 1;0 0 1 1;0 0.333333 1 0.666667" type="scale" calcMode="spline" fill="freeze" values="1 0;1 0;1 1.4;1 1.4" attributeName="transform" keyTimes="0;0.24;0.34;1"/>
                    <g transform="skewX(0) skewY(0)">
                     <g opacity="1" transform="translate(-125 -200)">
                      <path stroke="none" stroke-linejoin="miter" fill="rgba(204, 204, 204, 1)" fill-rule="evenodd" stroke-linecap="butt" id="krug6" d="M175 200C175 227.614 152.614 250 125 250C97.3858 250 75 227.614 75 200C75 172.386 97.3858 150 125 150C152.614 150 175 172.386 175 200Z" stroke-width="1"/>
                     </g>
                    </g>
                   </g>
                  </g>
                 </g>
                </g>
               </g>
               <g transform="translate(299 100)">
                <g transform="translate(-44.699 442.371)">
                 <g transform="rotate(0)">
                  <g>
                   <animateTransform dur="6s" keySplines="0 0 1 1;0 0 1 1;0 0.333333 1 0.666667" type="scale" calcMode="spline" fill="freeze" values="0 1;0 1;2 1;2 1" attributeName="transform" keyTimes="0;0.273333;0.34;1"/>
                   <g>
                    <animateTransform dur="6s" keySplines="0 0 1 1;0 0 1 1;0 0.333333 1 0.666667" type="scale" calcMode="spline" fill="freeze" values="1 0;1 0;1 2;1 2" attributeName="transform" keyTimes="0;0.273333;0.34;1"/>
                    <g transform="skewX(0) skewY(0)">
                     <g transform="translate(-299 -100)">
                      <path stroke="rgba(204, 204, 204, 1)" stroke-linejoin="miter" fill="rgba(204, 204, 204, 1)" fill-rule="evenodd" stroke-linecap="butt" id="krug6b" d="M349 100C349 127.614 326.614 150 299 150C271.386 150 249 127.614 249 100C249 72.3858 271.386 50 299 50C326.614 50 349 72.3858 349 100Z" stroke-width="3"/>
                      <animate dur="6s" keySplines="0 0 1 1;0 0 1 1;0 0 1 1" calcMode="spline" fill="freeze" values="1;1;0;0" attributeName="opacity" keyTimes="0;0.306667;0.34;1"/>
                     </g>
                    </g>
                   </g>
                  </g>
                 </g>
                </g>
               </g>
               <g transform="translate(125 400)">
                <g transform="translate(129.301 422.371)">
                 <g transform="rotate(0)">
                  <g>
                   <animateTransform dur="6s" keySplines="0 0 1 1;0 0 1 1;0 0.333333 1 0.666667" type="scale" calcMode="spline" fill="freeze" values="0 1;0 1;1.4 1;1.4 1" attributeName="transform" keyTimes="0;0.45;0.55;1"/>
                   <g>
                    <animateTransform dur="6s" keySplines="0 0 1 1;0 0 1 1;0 0.333333 1 0.666667" type="scale" calcMode="spline" fill="freeze" values="1 0;1 0;1 1.4;1 1.4" attributeName="transform" keyTimes="0;0.45;0.55;1"/>
                    <g transform="skewX(0) skewY(0)">
                     <g opacity="1" transform="translate(-125 -400)">
                      <path stroke="none" stroke-linejoin="miter" fill="rgba(204, 204, 204, 1)" fill-rule="evenodd" stroke-linecap="butt" id="krug5" d="M175 400C175 427.614 152.614 450 125 450C97.3858 450 75 427.614 75 400C75 372.386 97.3858 350 125 350C152.614 350 175 372.386 175 400Z" stroke-width="1"/>
                     </g>
                    </g>
                   </g>
                  </g>
                 </g>
                </g>
               </g>
               <g transform="translate(299 100)">
                <g transform="translate(-44.699 722.371)">
                 <g transform="rotate(0)">
                  <g>
                   <animateTransform dur="6s" keySplines="0 0 1 1;0 0 1 1;0 0.333333 1 0.666667" type="scale" calcMode="spline" fill="freeze" values="0 1;0 1;2 1;2 1" attributeName="transform" keyTimes="0;0.483333;0.55;1"/>
                   <g>
                    <animateTransform dur="6s" keySplines="0 0 1 1;0 0 1 1;0 0.333333 1 0.666667" type="scale" calcMode="spline" fill="freeze" values="1 0;1 0;1 2;1 2" attributeName="transform" keyTimes="0;0.483333;0.55;1"/>
                    <g transform="skewX(0) skewY(0)">
                     <g transform="translate(-299 -100)">
                      <path stroke="rgba(204, 204, 204, 1)" stroke-linejoin="miter" fill="rgba(204, 204, 204, 1)" fill-rule="evenodd" stroke-linecap="butt" id="krug5b" d="M349 100C349 127.614 326.614 150 299 150C271.386 150 249 127.614 249 100C249 72.3858 271.386 50 299 50C326.614 50 349 72.3858 349 100Z" stroke-width="3"/>
                      <animate dur="6s" keySplines="0 0 1 1;0 0 1 1;0 0 1 1" calcMode="spline" fill="freeze" values="1;1;0;0" attributeName="opacity" keyTimes="0;0.516667;0.55;1"/>
                     </g>
                    </g>
                   </g>
                  </g>
                 </g>
                </g>
               </g>
               <g transform="translate(302 500)">
                <g transform="translate(200.099 462.371)">
                 <g transform="rotate(0)">
                  <g>
                   <animateTransform dur="6s" keySplines="0 0 1 1;0 0 1 1;0 0.333333 1 0.666667" type="scale" calcMode="spline" fill="freeze" values="0 1;0 1;1.4 1;1.4 1" attributeName="transform" keyTimes="0;0.666667;0.766667;1"/>
                   <g>
                    <animateTransform dur="6s" keySplines="0 0 1 1;0 0 1 1;0 0.333333 1 0.666667" type="scale" calcMode="spline" fill="freeze" values="1 0;1 0;1 1.4;1 1.4" attributeName="transform" keyTimes="0;0.666667;0.766667;1"/>
                    <g transform="skewX(0) skewY(0)">
                     <g opacity="1" transform="translate(-302 -500)">
                      <path stroke="none" stroke-linejoin="miter" fill="rgba(204, 204, 204, 1)" fill-rule="evenodd" stroke-linecap="butt" id="krug4" d="M350 500C350 527.614 327.614 550 300 550C272.386 550 250 527.614 250 500C250 472.386 272.386 450 300 450C327.614 450 350 472.386 350 500Z" stroke-width="1"/>
                     </g>
                    </g>
                   </g>
                  </g>
                 </g>
                </g>
               </g>
               <g transform="translate(299 100)">
                <g transform="translate(200.299 862.371)">
                 <g transform="rotate(0)">
                  <g>
                   <animateTransform dur="6s" keySplines="0 0 1 1;0 0 1 1;0 0.333333 1 0.666667" type="scale" calcMode="spline" fill="freeze" values="0 1;0 1;2 1;2 1" attributeName="transform" keyTimes="0;0.68;0.766667;1"/>
                   <g>
                    <animateTransform dur="6s" keySplines="0 0 1 1;0 0 1 1;0 0.333333 1 0.666667" type="scale" calcMode="spline" fill="freeze" values="1 0;1 0;1 2;1 2" attributeName="transform" keyTimes="0;0.68;0.766667;1"/>
                    <g transform="skewX(0) skewY(0)">
                     <g transform="translate(-299 -100)">
                      <path stroke="rgba(204, 204, 204, 1)" stroke-linejoin="miter" fill="rgba(204, 204, 204, 1)" fill-rule="evenodd" stroke-linecap="butt" id="krug4b" d="M349 100C349 127.614 326.614 150 299 150C271.386 150 249 127.614 249 100C249 72.3858 271.386 50 299 50C326.614 50 349 72.3858 349 100Z" stroke-width="3"/>
                      <animate dur="6s" keySplines="0 0 1 1;0 0 1 1;0 0 1 1" calcMode="spline" fill="freeze" values="1;1;0;0" attributeName="opacity" keyTimes="0;0.733333;0.766667;1"/>
                     </g>
                    </g>
                   </g>
                  </g>
                 </g>
                </g>
               </g>
               <g transform="translate(475 400)">
                <g transform="translate(270.699 422.371)">
                 <g transform="rotate(0)">
                  <g>
                   <animateTransform dur="6s" keySplines="0 0 1 1;0 0 1 1;0 0.333333 1 0.666667" type="scale" calcMode="spline" fill="freeze" values="0 1;0 1;1.4 1;1.4 1" attributeName="transform" keyTimes="0;0.45;0.55;1"/>
                   <g>
                    <animateTransform dur="6s" keySplines="0 0 1 1;0 0 1 1;0 0.333333 1 0.666667" type="scale" calcMode="spline" fill="freeze" values="1 0;1 0;1 1.4;1 1.4" attributeName="transform" keyTimes="0;0.45;0.55;1"/>
                    <g transform="skewX(0) skewY(0)">
                     <g opacity="1" transform="translate(-475 -400)">
                      <path stroke="none" stroke-linejoin="miter" fill="rgba(204, 204, 204, 1)" fill-rule="evenodd" stroke-linecap="butt" id="krug3" d="M525 400C525 427.614 502.614 450 475 450C447.386 450 425 427.614 425 400C425 372.386 447.386 350 475 350C502.614 350 525 372.386 525 400Z" stroke-width="1"/>
                     </g>
                    </g>
                   </g>
                  </g>
                 </g>
                </g>
               </g>
               <g transform="translate(299 100)">
                <g transform="translate(445.301 722.371)">
                 <g transform="rotate(0)">
                  <g>
                   <animateTransform dur="6s" keySplines="0 0 1 1;0 0 1 1;0 0.333333 1 0.666667" type="scale" calcMode="spline" fill="freeze" values="0 1;0 1;2 1;2 1" attributeName="transform" keyTimes="0;0.483333;0.55;1"/>
                   <g>
                    <animateTransform dur="6s" keySplines="0 0 1 1;0 0 1 1;0 0.333333 1 0.666667" type="scale" calcMode="spline" fill="freeze" values="1 0;1 0;1 2;1 2" attributeName="transform" keyTimes="0;0.483333;0.55;1"/>
                    <g transform="skewX(0) skewY(0)">
                     <g transform="translate(-299 -100)">
                      <path stroke="rgba(204, 204, 204, 1)" stroke-linejoin="miter" fill="rgba(204, 204, 204, 1)" fill-rule="evenodd" stroke-linecap="butt" id="krug3b" d="M349 100C349 127.614 326.614 150 299 150C271.386 150 249 127.614 249 100C249 72.3858 271.386 50 299 50C326.614 50 349 72.3858 349 100Z" stroke-width="3"/>
                      <animate dur="6s" keySplines="0 0 1 1;0 0 1 1;0 0 1 1" calcMode="spline" fill="freeze" values="1;1;0;0" attributeName="opacity" keyTimes="0;0.516667;0.55;1"/>
                     </g>
                    </g>
                   </g>
                  </g>
                 </g>
                </g>
               </g>
               <g transform="translate(475 200)">
                <g transform="translate(269.301 342.371)">
                 <g transform="rotate(0)">
                  <g>
                   <animateTransform dur="6s" keySplines="0 0 1 1;0 0 1 1;0 0.333333 1 0.666667" type="scale" calcMode="spline" fill="freeze" values="0 1;0 1;1.4 1;1.4 1" attributeName="transform" keyTimes="0;0.24;0.34;1"/>
                   <g>
                    <animateTransform dur="6s" keySplines="0 0 1 1;0 0 1 1;0 0.333333 1 0.666667" type="scale" calcMode="spline" fill="freeze" values="1 0;1 0;1 1.4;1 1.4" attributeName="transform" keyTimes="0;0.24;0.34;1"/>
                    <g transform="skewX(0) skewY(0)">
                     <g opacity="1" transform="translate(-475 -200)">
                      <path stroke="none" stroke-linejoin="miter" fill="rgba(204, 204, 204, 1)" fill-rule="evenodd" stroke-linecap="butt" id="krug2" d="M525 200C525 227.614 502.614 250 475 250C447.386 250 425 227.614 425 200C425 172.386 447.386 150 475 150C502.614 150 525 172.386 525 200Z" stroke-width="1"/>
                     </g>
                    </g>
                   </g>
                  </g>
                 </g>
                </g>
               </g>
               <g transform="translate(299 100)">
                <g transform="translate(445.301 442.371)">
                 <g transform="rotate(0)">
                  <g>
                   <animateTransform dur="6s" keySplines="0 0 1 1;0 0 1 1;0 0.333333 1 0.666667" type="scale" calcMode="spline" fill="freeze" values="0 1;0 1;2 1;2 1" attributeName="transform" keyTimes="0;0.273333;0.34;1"/>
                   <g>
                    <animateTransform dur="6s" keySplines="0 0 1 1;0 0 1 1;0 0.333333 1 0.666667" type="scale" calcMode="spline" fill="freeze" values="1 0;1 0;1 2;1 2" attributeName="transform" keyTimes="0;0.273333;0.34;1"/>
                    <g transform="skewX(0) skewY(0)">
                     <g transform="translate(-299 -100)">
                      <path stroke="rgba(204, 204, 204, 1)" stroke-linejoin="miter" fill="rgba(204, 204, 204, 1)" fill-rule="evenodd" stroke-linecap="butt" id="krug2b" d="M349 100C349 127.614 326.614 150 299 150C271.386 150 249 127.614 249 100C249 72.3858 271.386 50 299 50C326.614 50 349 72.3858 349 100Z" stroke-width="3"/>
                      <animate dur="6s" keySplines="0 0 1 1;0 0 1 1;0 0 1 1" calcMode="spline" fill="freeze" values="1;1;0;0" attributeName="opacity" keyTimes="0;0.306667;0.34;1"/>
                     </g>
                    </g>
                   </g>
                  </g>
                 </g>
                </g>
               </g>
               <g transform="translate(299 100)">
                <g transform="translate(198.901 302.371)">
                 <g transform="rotate(0)">
                  <g>
                   <animateTransform dur="6s" keySplines="0 0 1 1;0 0 1 1;0 0.333333 1 0.666667" type="scale" calcMode="spline" fill="freeze" values="0 1;0 1;1.4 1;1.4 1" attributeName="transform" keyTimes="0;0.0466667;0.14;1"/>
                   <g>
                    <animateTransform dur="6s" keySplines="0 0 1 1;0 0 1 1;0 0.333333 1 0.666667" type="scale" calcMode="spline" fill="freeze" values="1 0;1 0;1 1.4;1 1.4" attributeName="transform" keyTimes="0;0.0466667;0.14;1"/>
                    <g transform="skewX(0) skewY(0)">
                     <g opacity="1" transform="translate(-299 -100)">
                      <path stroke="none" stroke-linejoin="miter" fill="rgba(204, 204, 204, 1)" fill-rule="evenodd" stroke-linecap="butt" id="krug1" d="M349 100C349 127.614 326.614 150 299 150C271.386 150 249 127.614 249 100C249 72.3858 271.386 50 299 50C326.614 50 349 72.3858 349 100Z" stroke-width="1"/>
                     </g>
                    </g>
                   </g>
                  </g>
                 </g>
                </g>
               </g>
               <g transform="translate(299 100)">
                <g transform="translate(198.901 302.371)">
                 <g transform="rotate(0)">
                  <g>
                   <animateTransform dur="6s" keySplines="0 0 1 1;0 0 1 1;0 0.333333 1 0.666667" type="scale" calcMode="spline" fill="freeze" values="0 1;0 1;2 1;2 1" attributeName="transform" keyTimes="0;0.0733333;0.14;1"/>
                   <g>
                    <animateTransform dur="6s" keySplines="0 0 1 1;0 0 1 1;0 0.333333 1 0.666667" type="scale" calcMode="spline" fill="freeze" values="1 0;1 0;1 2;1 2" attributeName="transform" keyTimes="0;0.0733333;0.14;1"/>
                    <g transform="skewX(0) skewY(0)">
                     <g transform="translate(-299 -100)">
                      <path stroke="rgba(204, 204, 204, 1)" stroke-linejoin="miter" fill="rgba(204, 204, 204, 1)" fill-rule="evenodd" stroke-linecap="butt" id="krug1b" d="M349 100C349 127.614 326.614 150 299 150C271.386 150 249 127.614 249 100C249 72.3858 271.386 50 299 50C326.614 50 349 72.3858 349 100Z" stroke-width="3"/>
                      <animate dur="6s" keySplines="0 0 1 1;0 0 1 1;0 0 1 1" calcMode="spline" fill="freeze" values="1;1;0;0" attributeName="opacity" keyTimes="0;0.106667;0.14;1"/>
                     </g>
                    </g>
                   </g>
                  </g>
                 </g>
                </g>
               </g>
              </g>
             </g>
            </g>
           </g>
          </g>
         </g>
        </g>
       </g>
      </g>
     </g>
    </g>
   </g>
  </g>
 </g>
 <defs/>
</svg>
