<svg xmlns="http://www.w3.org/2000/svg" width="24" height="24">
  <path fill="#fff" d="m12 21 3.6-4.8c-1-.75-2.25-1.2-3.6-1.2s-2.6.45-3.6 1.2z" opacity="0">
<animate id="c" fill="freeze" attributeName="opacity" begin="0;a.end+0.2s" calcMode="discrete" dur="0.25s" values="0;1"/>
<animate id="a" fill="freeze" attributeName="opacity" begin="b.end+0.5s" dur="0.001s" values="1;0"/>
  </path>
  <path fill="#fff" d="M12 9c-2.7 0-5.19.89-7.2 2.4l1.8 2.4C8.1 12.67 9.97 12 12 12s3.9.67 5.4 1.8l1.8-2.4C17.19 9.89 14.7 9 12 9" opacity="0">
<animate id="d" fill="freeze" attributeName="opacity" begin="c.end" calcMode="discrete" dur="0.25s" values="0;1"/>
<animate fill="freeze" attributeName="opacity" begin="b.end+0.5s" dur="0.001s" values="1;0"/>
  </path>
  <path fill="#fff" d="M12 3C7.95 3 4.21 4.34 1.2 6.6L3 9c2.5-1.88 5.62-3 9-3s6.5 1.12 9 3l1.8-2.4C19.79 4.34 16.05 3 12 3" opacity="0">
<animate id="b" fill="freeze" attributeName="opacity" begin="d.end" calcMode="discrete" dur="0.25s" values="0;1"/>
<animate fill="freeze" attributeName="opacity" begin="b.end+0.5s" dur="0.001s" values="1;0"/>
  </path>
</svg>
