<?xml version="1.0" encoding="UTF-8" standalone="no"?>
<!-- Uploaded to: SVG Repo, www.svgrepo.com, Generator: SVG Repo Mixer Tools -->

<svg
   fill="#000000"
   version="1.1"
   id="Capa_1"
   width="800px"
   height="800px"
   viewBox="0 0 553.102 553.102"
   xml:space="preserve"
   sodipodi:docname="s-youtube.svg"
   inkscape:version="1.4 (e7c3feb1, 2024-10-09)"
   xmlns:inkscape="http://www.inkscape.org/namespaces/inkscape"
   xmlns:sodipodi="http://sodipodi.sourceforge.net/DTD/sodipodi-0.dtd"
   xmlns="http://www.w3.org/2000/svg"
   xmlns:svg="http://www.w3.org/2000/svg"><defs
   id="defs6" /><sodipodi:namedview
   id="namedview6"
   pagecolor="#ffffff"
   bordercolor="#000000"
   borderopacity="0.25"
   inkscape:showpageshadow="2"
   inkscape:pageopacity="0.0"
   inkscape:pagecheckerboard="0"
   inkscape:deskcolor="#d1d1d1"
   inkscape:zoom="0.22549684"
   inkscape:cx="609.76464"
   inkscape:cy="272.73109"
   inkscape:window-width="1104"
   inkscape:window-height="904"
   inkscape:window-x="0"
   inkscape:window-y="33"
   inkscape:window-maximized="0"
   inkscape:current-layer="g5" />
<g
   id="g6"
   style="fill:#000000;fill-opacity:1">
	<g
   id="g5"
   style="fill:#000000;fill-opacity:1">
		<rect
   style="fill:#ffffff;fill-opacity:1;stroke:#3d3d3d;stroke-width:2.10353;stroke-dasharray:12.6212, 12.6212"
   id="rect1"
   width="410.8465"
   height="487.49695"
   x="71.127754"
   y="32.802525" /><path
   d="m 333.087,326.967 c -8.641,0 -16.805,4.799 -24.485,14.4 v -57.98 h -24.125 v 177.529 h 24.125 v -12.969 c 7.919,9.848 16.077,14.768 24.485,14.768 9.842,0 16.2,-5.037 19.083,-15.123 1.677,-5.049 2.521,-13.801 2.521,-26.291 v -52.576 c 0,-12.719 -0.845,-21.604 -2.521,-26.641 -2.883,-10.086 -9.241,-15.117 -19.083,-15.117 z m -2.16,96.138 c 0,11.775 -3.482,17.639 -10.446,17.639 -4.082,0 -8.042,-1.916 -11.879,-5.752 v -80.668 c 3.837,-3.826 7.797,-5.754 11.879,-5.754 6.958,0 10.446,6.004 10.446,18.006 z"
   id="path1"
   style="display:inline;fill:#000000;fill-opacity:1" />
		<path
   d="m 409.422,326.967 c -12.24,0 -21.849,4.572 -28.807,13.686 -4.804,6.469 -7.203,16.811 -7.203,30.961 v 46.463 c 0,14.162 2.521,24.473 7.564,30.961 6.958,9.131 16.683,13.684 29.168,13.684 12.724,0 22.325,-4.797 28.807,-14.406 2.883,-4.32 4.682,-9.113 5.404,-14.406 0.477,-3.348 0.716,-8.525 0.716,-15.49 v -3.236 h -24.486 c 0,2.643 0,5.219 0,7.734 0,2.515 -0.062,4.498 -0.178,5.949 -0.122,1.432 -0.177,2.277 -0.177,2.516 -1.438,6.248 -5.043,9.352 -10.802,9.352 -8.165,0 -12.24,-6.121 -12.24,-18.354 v -23.41 h 47.889 V 371.61 c 0,-13.912 -2.521,-24.236 -7.559,-30.963 -6.486,-9.108 -15.85,-13.68 -28.096,-13.68 z m 11.524,52.211 h -23.765 v -12.254 c 0,-12.238 3.96,-18.354 11.88,-18.354 7.925,0 11.885,6.121 11.885,18.354 z"
   id="path2"
   style="display:inline;fill:#000000;fill-opacity:1" />
		<path
   d="m 239.818,429.588 c -5.281,7.441 -10.324,11.156 -15.123,11.156 -3.366,0 -5.165,-1.799 -5.397,-5.404 -0.245,-0.465 -0.361,-3.598 -0.361,-9.352 v -97.223 h -23.764 v 104.426 c 0,9.131 0.722,15.6 2.16,19.438 2.161,6.738 7.203,10.086 15.123,10.086 8.88,0 18.005,-5.404 27.369,-16.205 v 14.406 h 24.125 v -132.15 h -24.125 v 100.822 z"
   id="path3"
   style="display:inline;fill:#000000;fill-opacity:1" />
		<path
   d="m 271.153,193.013 c 7.681,0 11.524,-6.132 11.524,-18.372 v -56.182 c 0,-12.479 -3.843,-18.721 -11.524,-18.721 -7.687,0 -11.524,6.242 -11.524,18.721 v 56.182 c 0,12.239 3.837,18.372 11.524,18.372 z"
   id="path4"
   style="display:inline;fill:#ff0000;fill-opacity:1" />
		<polygon
   points="136.115,460.916 162.762,460.916 162.762,308.596 191.568,308.596 191.568,283.387 108.03,283.387 108.03,308.596 136.115,308.596 "
   id="polygon4"
   style="display:inline;fill:#000000;fill-opacity:1" />
		<path
   d="M 449.398,0 H 103.71 C 75.142,0 50.717,10.153 30.429,30.422 10.141,50.723 0,75.142 0,103.709 v 345.683 c 0,28.566 10.141,52.998 30.429,73.268 20.282,20.281 44.707,30.441 73.281,30.441 h 345.688 c 28.562,0 52.986,-10.154 73.274,-30.441 20.281,-20.27 30.429,-44.701 30.429,-73.268 V 103.709 c 0,-28.568 -10.147,-52.987 -30.429,-73.287 C 502.385,10.153 477.96,0 449.398,0 Z M 326.606,79.939 h 24.125 v 97.938 c 0,5.765 0.122,8.892 0.361,9.37 0.238,3.855 2.16,5.765 5.759,5.765 4.798,0 9.841,-3.715 15.122,-11.169 V 79.939 h 24.125 v 133.232 h -24.125 v -14.406 c -9.847,10.802 -19.088,16.206 -27.729,16.206 -7.687,0 -12.846,-3.237 -15.483,-9.719 -1.438,-4.32 -2.16,-10.918 -2.16,-19.804 V 79.939 Z m -91.108,43.208 c 0,-13.911 2.521,-24.364 7.564,-31.322 6.481,-9.113 15.845,-13.685 28.085,-13.685 11.756,0 21.12,4.572 28.084,13.685 5.043,6.964 7.559,17.411 7.559,31.322 v 46.812 c 0,14.4 -2.521,24.854 -7.559,31.322 -6.965,9.131 -16.328,13.685 -28.084,13.685 -12.24,0 -21.604,-4.56 -28.085,-13.685 -5.043,-6.946 -7.564,-17.387 -7.564,-31.322 z m -64.811,-88.936 19.088,70.215 18.36,-70.215 h 27.008 l -32.406,106.592 v 72.369 h -26.646 v -72.369 c -2.644,-13.207 -8.164,-32.167 -16.566,-56.897 -1.683,-5.514 -4.45,-13.801 -8.287,-24.853 -3.843,-11.028 -6.726,-19.315 -8.642,-24.841 h 28.091 z m 296.716,434.623 c -2.405,10.338 -7.51,19.09 -15.307,26.293 -7.803,7.203 -16.866,11.406 -27.185,12.6 -32.89,3.6 -82.345,5.404 -148.355,5.404 -66.023,0 -115.472,-1.799 -148.355,-5.404 -10.325,-1.193 -19.388,-5.402 -27.185,-12.6 -7.803,-7.203 -12.907,-15.949 -15.3,-26.293 -4.804,-20.158 -7.203,-51.371 -7.203,-93.623 0,-41.523 2.399,-72.736 7.203,-93.623 2.399,-10.551 7.503,-19.37 15.3,-26.458 7.797,-7.087 16.983,-11.224 27.546,-12.436 32.644,-3.599 81.978,-5.404 148,-5.404 66.255,0 115.705,1.799 148.355,5.404 10.324,1.212 19.449,5.343 27.368,12.436 7.926,7.087 13.085,15.906 15.484,26.458 4.559,19.932 6.842,51.133 6.842,93.623 -0.01,42.252 -2.41,73.465 -7.208,93.623 z"
   id="path5"
   style="display:inline;fill:#ff0000;fill-opacity:1" />
	</g>
</g>
</svg>
